<?xml version="1.0" standalone="no"?>
<!DOCTYPE svg PUBLIC "-//W3C//DTD SVG 1.1//EN" "http://www.w3.org/Graphics/SVG/1.1/DTD/svg11.dtd" >
<svg>
<metadata>
Created by FontForge 20110222 at Wed Jul 27 12:18:56 2011
 By www-data
Copyright (c) 2011 by Kimberly Geswein. All rights reserved.
</metadata>
<defs>
<font id="KGSmallTownSouthernGirl" horiz-adv-x="580" >
  <font-face 
    font-family="KG Small Town Southern Girl"
    font-weight="400"
    font-variant="small-caps"
    font-stretch="normal"
    units-per-em="1024"
    panose-1="2 0 5 5 0 0 0 2 0 4"
    ascent="819"
    descent="-205"
    x-height="402"
    cap-height="638.5"
    bbox="-42.9655 -360.421 952.8 858.737"
    underline-thickness="0"
    underline-position="0"
    unicode-range="U+0020-20AC"
  />
    <missing-glyph />
    <glyph glyph-name="space" unicode=" " horiz-adv-x="391" 
 />
    <glyph glyph-name="space" unicode="&#xa0;" horiz-adv-x="391" 
 />
    <glyph glyph-name="equal" unicode="=" horiz-adv-x="385" 
d="M94 104q-15 5 -22.5 14.5t-8.5 20.5t5.5 20.5t19.5 14.5q9 2 31 4.5t50 4t57.5 0.5t53.5 -5t38.5 -13t12.5 -24q-3 -23 -25 -31t-55 -9t-74 1.5t-83 1.5zM87 220q-15 5 -22.5 14.5t-8.5 20.5t5.5 20.5t19.5 14.5q9 3 32 7t51 5.5t57.5 1t53.5 -5.5t38 -15t11 -26
q-3 -18 -25 -24t-55 -7t-74 -1t-83 -5z" />
    <glyph glyph-name="numbersign" unicode="#" horiz-adv-x="889" 
d="M554 161q-21 1 -41 0.5t-42 -1.5t-48.5 -2t-59.5 1q0 -9 5 -31t9 -44.5t4 -40.5t-10 -20q-21 -13 -34.5 -10t-22 16.5t-13.5 33.5t-8 40.5t-5.5 37.5t-7.5 24h-162h-32.5t-28.5 6t-17 22t4 48q21 8 50.5 9t60 0t60.5 -1t53 6l-19 122l-200 -16q-6 5 -9.5 16t-4 23.5
t1 23.5t6.5 17l192 12v27.5t-0.5 15.5t-2 11t-3.5 14.5t-4.5 26t-5.5 44.5q-4 13 6.5 25t27 19t33 6.5t24.5 -10.5q4 -5 4.5 -14t1 -28t2.5 -49.5t8 -77.5v-4q29 -1 53.5 -1.5t47.5 0t47.5 3.5t53.5 9q1 8 2 6.5t1.5 -4t0.5 -2t-0.5 12t-1.5 38.5t-3 77q-3 12 10 25.5
t30 19.5t31.5 -1t14.5 -36q1 -22 0.5 -38t-0.5 -31t1 -30.5t5 -34.5q6 -3 27 -0.5t45.5 7t46 8t28.5 3.5q4 0 14 -8.5t16.5 -20.5t6.5 -25.5t-15 -23.5q-19 -8 -41.5 -10t-45.5 -3t-45 -2.5t-40 -9.5q4 -28 5.5 -49.5t1.5 -38.5v-31t2 -27q33 -4 72.5 -2t73 -3t54.5 -24.5
t17 -66.5l-205 -5q0 -13 3.5 -34.5t6.5 -42.5t3 -37.5t-6 -20.5q-18 -5 -34 -10t-28 6.5t-19.5 47t-8.5 112.5zM547 245q-1 15 -3 34t-4 39t-3 39t0 34q-29 1 -52.5 0t-46 -3t-46 -5t-52.5 -5q1 -5 3 -23.5t4 -39.5t3.5 -40t3.5 -23z" />
    <glyph glyph-name="greater" unicode="&#x3e;" horiz-adv-x="419" 
d="M87 77q-28 23 -31.5 41.5t9 33.5t37 28.5t54 27t59 28.5t51.5 33q-20 4 -47.5 12.5t-56 17t-55 15t-45.5 6.5q-18 5 -24 17t-3.5 26t12 27t21.5 19q48 -12 86 -23.5t74 -22.5t74 -22.5t86 -23.5q10 -3 14 -12.5t4 -20t-5 -20t-13 -13.5z" />
    <glyph glyph-name="question" unicode="?" horiz-adv-x="352" 
d="M177 284q-8 -12 -8.5 -26.5t0.5 -28.5t1.5 -26t-6.5 -21t-24.5 -12.5t-50.5 0.5q-2 32 0 63.5t16 61.5q3 7 21 26.5t40.5 44.5t43.5 53t30.5 53.5t2.5 44.5t-41 27q-26 6 -49 -7t-42.5 -28.5t-36 -24.5t-29.5 4t-10 28.5t14 30t25.5 26.5t23.5 18q36 24 79.5 33
t79.5 -0.5t57 -39.5t13 -85q-5 -29 -23.5 -59t-41.5 -58t-46.5 -53t-38.5 -45zM116 16q-22 18 -22 36.5t12 31t32 15t38 -11.5q21 -17 20 -35t-14 -30t-32 -15.5t-34 9.5z" />
    <glyph glyph-name="dollar" unicode="$" horiz-adv-x="620" 
d="M303 -78q-13 11 -17.5 18.5t-4 14.5t3.5 16t6 24q-64 10 -110 25.5t-78.5 44.5t-52.5 74t-31 113q7 16 17.5 27t20.5 16.5t19 3.5t14 -12l5 1v-4q0 -79 48.5 -134t156.5 -72q11 29 17 50.5t9 42.5t5.5 43.5t6.5 52.5q-28 5 -60 29t-57 57.5t-38 72t-1.5 73t52 59.5
t121.5 33l4 86q-6 12 0 20.5t17.5 13t25.5 4.5t24.5 -5.5t14.5 -16.5t-4 -29q0 -44 -1 -62t-1 -21t1 1.5t5 5.5q24 -4 36.5 -5.5t22 -3.5t20 -6t31.5 -13q14 -6 27.5 -16.5t19.5 -22.5t-0.5 -24.5t-31.5 -23.5q-15 -5 -27 3t-26 19t-31.5 19t-42.5 2l-12 -226
q41 -18 67.5 -44.5t38.5 -57t9.5 -60.5t-21 -55t-52.5 -41t-84 -18l-4 -4l-1.5 -9.5t-4 -22.5l-5 -26t-3.5 -22q-1 -14 -4 -17t-10.5 -1t-19.5 6t-30 4zM410 198q-4 -19 -7 -31t-5.5 -22.5t-4 -23.5t-2.5 -33q33 13 46.5 33.5t13 39t-12 30t-28.5 7.5zM339 352q-1 7 2 24
t7 37.5t6 41t-3 33.5t-19 15.5t-42 -12.5q-24 -9 -25.5 -31.5t9 -45.5t29 -42t36.5 -20z" />
    <glyph glyph-name="at" unicode="@" horiz-adv-x="666" 
d="M220 2q-61 26 -103 68.5t-65 94t-28.5 108t5.5 111t37.5 103t68.5 83.5q50 47 102.5 62.5t103.5 7t98.5 -36.5t86.5 -67t67.5 -85t42.5 -90.5t10 -83.5t-29 -64.5t-74.5 -33t-127.5 11.5q-20 -31 -48.5 -47.5t-61.5 -22t-68 -1t-67 16.5q27 -40 64.5 -57.5t79.5 -22
t86 -1t85 4.5q-12 -42 -43.5 -57.5t-70.5 -17t-79.5 5t-71.5 10.5zM279 191q32 -6 49.5 6.5t26.5 36t12 52t5 53.5q-4 28 -25.5 30t-47 -11.5t-49.5 -38.5t-32.5 -51t3.5 -48t58 -29zM436 413q10 -5 10.5 -20t-2.5 -35t-4.5 -41t4.5 -36.5t24 -22.5t55 1q25 20 28 51.5
t-10 66t-39.5 68.5t-62 59.5t-76.5 38t-83.5 4.5t-83 -40.5t-74.5 -97.5q-13 -36 -13 -76t13 -77q12 59 43.5 105.5t74.5 70.5t94 22t102 -41z" />
    <glyph glyph-name="percent" unicode="%" horiz-adv-x="441" 
d="M112 12q-22 -16 -44 -5t-30 38l300 557q8 12 21 14.5t24 -2t17.5 -15.5t2.5 -26zM315 48q-22 18 -22 36.5t12 30.5t31.5 14.5t37.5 -11.5q21 -17 20 -35t-13.5 -30t-31.5 -15t-34 10zM84 515q-22 18 -22 36.5t12 30.5t32 14.5t38 -11.5q21 -17 20 -34.5t-14 -30
t-32 -15.5t-34 10z" />
    <glyph glyph-name="ampersand" unicode="&#x26;" horiz-adv-x="528" 
d="M46 13q-30 27 -30 58.5t16 63t42 61t49 50.5q7 11 1.5 30t-16 43t-22 53t-15.5 61t3.5 66t34.5 68q25 28 58 45.5t69 23t73 -3.5t70 -34q31 -31 36 -62t-6 -61t-34.5 -58.5t-50.5 -56.5t-52.5 -55t-41.5 -52q-3 -2 3 -12.5t17.5 -26t26.5 -32.5t28.5 -32t24.5 -25.5
t15 -12.5q24 5 41.5 15.5t32 24t28.5 28t30 26.5q28 -10 36.5 -23.5t2.5 -28.5t-22 -30t-35.5 -27.5t-39 -22t-32.5 -13.5q3 -9 15.5 -22.5t27 -28t27 -28.5t15 -24.5t-9.5 -16.5t-46 -5q-12 0 -27 13t-29 29.5t-26.5 33.5t-19.5 25q-25 -9 -61 -22t-74 -20.5t-73.5 -5
t-59.5 23.5zM184 184q-43 -27 -63 -51.5t-22.5 -42.5t10.5 -29t35.5 -11.5t53 10t63.5 35.5q-5 6 -16.5 19t-24 27.5t-23 27t-13.5 15.5zM337 524q-3 25 -25.5 33t-52 2.5t-58 -24.5t-45 -50t-13 -72t39.5 -91l5 3q19 19 42.5 40.5t45.5 46t39 52t22 60.5z" />
    <glyph glyph-name="quotesingle" unicode="'" horiz-adv-x="157" 
d="M77 320q-11 13 -18.5 31t-12.5 37.5t-6.5 38.5t-0.5 36q2 13 11 19t19.5 6t20 -6t12.5 -18l32 -111q3 -10 -3.5 -16.5t-16.5 -10.5t-20.5 -5.5t-16.5 -0.5z" />
    <glyph glyph-name="parenleft" unicode="(" horiz-adv-x="234" 
d="M144 -99q-45 39 -75.5 93t-47.5 118.5t-20.5 136t5 145.5t28 147.5t50.5 142.5q9 16 22.5 22t27.5 4t27 -10.5t21 -21.5q1 -1 1 -3t-1 -2q-48 -99 -75 -192.5t-25.5 -184t36.5 -179t112 -178.5q9 -9 -1 -18t-26.5 -15.5t-34 -8.5t-24.5 4z" />
    <glyph glyph-name="parenright" unicode=")" horiz-adv-x="234" 
d="M73 -99q-7 -6 -24.5 -4t-34.5 8.5t-27 15.5t-1 18q77 90 112.5 178.5t37 179t-26 184t-75.5 192.5v5q8 13 21 21.5t27 10.5t27.5 -4t22.5 -22q46 -103 67.5 -216t16 -219.5t-40.5 -198t-102 -149.5z" />
    <glyph glyph-name="asterisk" unicode="*" horiz-adv-x="473" 
d="M398 260q12 -12 6 -19.5t-21.5 -10.5t-37.5 -0.5t-42 11t-34.5 23.5t-16.5 37q-5 -6 -24.5 -24t-42.5 -32t-44 -18.5t-29 16.5q8 25 14 55t0.5 55.5t-26 41t-65.5 12.5q-1 24 5.5 35.5t18.5 14.5t27 1t30 -5t28 -4t22 6q-1 21 2.5 48.5t13.5 46.5t28.5 21t47.5 -28
l54 -114q10 2 28.5 8t38 8.5t37 -1t26.5 -21.5q9 -19 1 -28t-22.5 -15t-31 -12t-24.5 -18t-2.5 -33t35.5 -57z" />
    <glyph glyph-name="plus" unicode="+" horiz-adv-x="464" 
d="M218 109q-10 5 -12.5 20t-3 35.5t-2 44t-9.5 46.5q-23 6 -45.5 5t-42.5 -2.5t-37.5 -0.5t-30.5 12q4 39 11 59t16.5 27.5t22 6t28 -5.5t34 -7t39.5 3l-4 151q0 13 12 18.5t27 5.5t29 -4.5t19 -13.5q10 -21 11.5 -40t0.5 -38.5t-1.5 -40t4.5 -43.5q25 -9 56 -9t56 -3.5
t37 -16.5t-1 -49q-17 -14 -33 -18t-32 -4t-33.5 2t-38.5 0q0 -11 1 -31.5t1.5 -42.5t-2 -42.5t-11 -32.5t-24.5 -11.5t-42 20.5z" />
    <glyph glyph-name="comma" unicode="," horiz-adv-x="160" 
d="M114 120q14 -18 18.5 -45.5t2.5 -56t-9.5 -55t-19.5 -42t-26.5 -16.5t-30.5 20q10 30 8.5 64t-2.5 66q-5 15 -4 33t8 30t20.5 14.5t34.5 -12.5z" />
    <glyph glyph-name="hyphen" unicode="-" horiz-adv-x="422" 
d="M101 202q-30 12 -37 30.5t1.5 34t30 25.5t48.5 6l192 -4q20 2 38 -5.5t26.5 -20.5t4.5 -29t-28 -31z" />
    <glyph glyph-name="hyphen" unicode="&#xad;" horiz-adv-x="422" 
d="M101 202q-30 12 -37 30.5t1.5 34t30 25.5t48.5 6l192 -4q20 2 38 -5.5t26.5 -20.5t4.5 -29t-28 -31z" />
    <glyph glyph-name="period" unicode="." horiz-adv-x="208" 
d="M87 26q-22 18 -22 36.5t12 30.5t32 14.5t38 -11.5q21 -17 20 -34.5t-14 -30t-32 -15.5t-34 10z" />
    <glyph glyph-name="slash" unicode="/" horiz-adv-x="339" 
d="M87 35q-13 -23 -28.5 -25t-26.5 7t-16 24t3 27l227 546q4 15 16.5 24t26 10.5t25 -7.5t13.5 -30z" />
    <glyph glyph-name="zero" unicode="0" horiz-adv-x="515" 
d="M364 49q-49 -38 -95.5 -48.5t-87 1t-73 41.5t-55.5 73.5t-34 98t-7 113.5q1 17 8.5 45.5t20.5 61.5t30 66.5t38 61t45.5 46t51.5 20.5q46 6 88 -8.5t77 -44t62 -71t42.5 -89.5t18 -99t-9.5 -100t-41.5 -92.5t-78.5 -75.5zM110 164q20 -54 52.5 -75.5t69.5 -19.5
t74.5 23.5t66.5 54t46 71.5t13 77q2 33 -7.5 63t-25.5 57t-37 52.5t-42 50.5q-44 31 -81.5 25.5t-66 -34.5t-47.5 -74.5t-27.5 -95t-6 -96.5t18.5 -79z" />
    <glyph glyph-name="one" unicode="1" horiz-adv-x="163" 
d="M76 11q-12 7 -18 19t-9.5 36t-5 64t-2.5 104.5t-3 156.5t-6 221q8 30 23 33.5t29.5 -6.5t25 -27.5t10.5 -29.5l17 -547q-2 -12 -9.5 -19t-17 -9.5t-19 -1t-15.5 5.5z" />
    <glyph glyph-name="two" unicode="2" horiz-adv-x="502" 
d="M445 5q-45 6 -90 3.5l-90 -5t-89 -2.5t-86 11q-23 6 -32.5 17.5t-10.5 26t6.5 29t19.5 25.5q43 36 72 69.5t51.5 69.5t41.5 76.5t43 90.5q24 46 25.5 76.5t-11.5 47t-37.5 21t-52 -2t-54.5 -23t-45 -40.5q-14 -1 -32 2.5t-30.5 12.5t-14 23t17.5 33q14 19 44 36t67 27.5
t77 11.5t75 -11q42 -16 60 -46.5t18 -70t-13 -83.5t-32 -85.5t-40.5 -78t-36.5 -60.5q-4 -6 -15.5 -22t-24.5 -33.5t-25 -34t-17 -24.5h6q60 6 121 6.5t123 -0.5q21 -4 33 -19t14 -31.5t-7 -29.5t-29 -13z" />
    <glyph glyph-name="three" unicode="3" horiz-adv-x="489" 
d="M243 327q97 -39 145.5 -77t60.5 -73t-6.5 -64.5t-55 -52.5t-85.5 -37.5t-98 -18.5t-91.5 4t-67.5 30q-8 5 -10 18.5t5 26t23.5 19t45.5 -2.5q95 -13 148 -3t71 32t5 50.5t-50 51.5t-93.5 35.5t-125.5 3.5q-24 6 -32 24.5t-6.5 37t8.5 31.5t14 8q28 6 51.5 13t45.5 15.5
t44 19t48 23.5q56 29 72.5 52t7.5 37.5t-37.5 19.5t-61.5 -0.5t-64.5 -23t-46.5 -48.5q-18 -2 -36 5t-28.5 19t-10 27.5t20.5 30.5q72 49 141 66t122.5 10t85.5 -35t29 -70t-47 -95t-141 -109z" />
    <glyph glyph-name="four" unicode="4" horiz-adv-x="483" 
d="M320 11q-11 7 -15.5 14.5t-5.5 15.5t-0.5 18t-0.5 22q-2 22 -5.5 55.5t-6.5 64.5t-6 53.5l-3 22.5q-93 4 -147 8t-81 13.5t-32.5 27t-0.5 48.5q64 72 106.5 127.5t73.5 89.5t55.5 45.5t52.5 -4.5q36 -21 48.5 -54.5t14.5 -72t-0.5 -77t2.5 -70.5q24 -9 42.5 -5.5t32 6.5
t21.5 -2t12 -30q2 -22 -3 -33.5t-15 -16t-22.5 -4.5t-24.5 1t-22.5 0t-15.5 -8q-5 -12 -1 -38.5t9.5 -57.5t9.5 -63t-0.5 -56.5t-20.5 -36.5t-51 -3zM266 534q-28 -17 -53.5 -39t-43.5 -44t-24.5 -41.5t2.5 -33t37.5 -18t81.5 4.5q9 10 12 33.5t2 50t-5 51t-9 36.5z" />
    <glyph glyph-name="five" unicode="5" horiz-adv-x="483" 
d="M349 8q-32 -11 -74 -15.5t-84 0t-79 21t-61 48.5q-5 33 8 43.5t52 5.5q40 -20 78.5 -30.5t83.5 -2.5q28 5 50 24.5t32 44.5t6 52t-28 47q-39 25 -74 36.5t-69.5 13t-69 -5t-72.5 -18.5q-13 54 -13 112.5t19.5 108.5t61.5 85t114 42q2 0 17.5 2t35.5 4.5l40 5t32 4.5
q16 2 33 -6.5t27.5 -21t9.5 -26.5t-22 -23q-26 -7 -58.5 -11t-65.5 -9t-63 -13.5t-50.5 -25.5t-28.5 -44.5t4 -70.5q63 10 121 -4t102 -43.5t71 -71t29 -86.5t-25 -90t-90 -82z" />
    <glyph glyph-name="six" unicode="6" horiz-adv-x="400" 
d="M338 332q37 -25 46 -62.5t-1.5 -78.5t-37 -80.5t-61.5 -67.5t-74.5 -40t-76 1.5t-66 57.5t-44.5 128q-5 36 0.5 88.5t18 111.5t31 120t40.5 112q4 9 16.5 12.5t27 3.5t26.5 -4t15 -11l4 -6q-8 -23 -25 -59t-35 -80.5t-32.5 -94.5t-18.5 -100t7 -97t45 -86q11 51 31 100
t46 83.5t56 49.5t62 -1zM221 81q3 -5 15 1.5t26.5 20.5t29.5 34t24.5 42.5t11 46t-10.5 44.5q-7 3 -19.5 -5.5t-26 -24.5t-26 -37.5t-21 -43.5t-10.5 -42.5t7 -35.5z" />
    <glyph glyph-name="seven" unicode="7" horiz-adv-x="416" 
d="M356 11q-42 -12 -59.5 11t-20 67.5t4.5 104.5t14.5 123t9.5 122t-10 102q-6 0 -24 -0.5t-43 -1.5t-53.5 -2t-53 -2t-43 -1.5t-23.5 -0.5q-10 0 -19 1t-15 7t-7.5 19t4.5 37q26 9 63 16t78 10.5t81.5 3.5t72.5 -4t52.5 -12.5t21.5 -22.5z" />
    <glyph glyph-name="eight" unicode="8" horiz-adv-x="416" 
d="M245 5q-51 23 -86.5 67t-51.5 97t-9.5 109t38.5 102q-8 16 -21 29.5t-27.5 26.5t-29 26.5t-25.5 31.5q-19 31 -13 54.5t27.5 41t55.5 27.5t71.5 14t75 1t66.5 -13t45.5 -26.5t12.5 -39.5q-33 -33 -56.5 -64.5t-51.5 -70.5q10 -7 27 -31t35.5 -58t35.5 -74t26.5 -79.5
t9.5 -75.5t-15 -60.5t-49 -35t-91 0.5zM275 87q21 1 30.5 14.5t10 34t-7.5 45.5t-21.5 50t-31.5 47t-38 37q-30 -64 -12.5 -124.5t70.5 -103.5zM262 556q-26 8 -56.5 3.5t-47.5 -17.5t-13.5 -31.5t45.5 -38.5q5 4 18 15.5t26 24t22 25t6 19.5z" />
    <glyph glyph-name="nine" unicode="9" horiz-adv-x="445" 
d="M427 373q-6 -46 -5 -96.5t3 -97.5t1 -87.5t-10.5 -67t-30.5 -36t-60 5.5q0 40 3 85t6.5 92t6 95.5t1.5 95.5q-44 -59 -89 -85t-85.5 -27t-73.5 19.5t-52 54t-21.5 76t18 86t67 83t124.5 68.5q69 12 110 -3.5t61.5 -52t25 -90.5t0.5 -118zM131 352q30 -18 58.5 -8
t52.5 32.5t42.5 50t28.5 44.5q13 26 7.5 43.5t-22.5 25t-41.5 6t-50.5 -13.5t-49.5 -34t-38.5 -54q-14 -26 -10.5 -53t23.5 -39z" />
    <glyph glyph-name="colon" unicode=":" horiz-adv-x="230" 
d="M87 395q-17 17 -17.5 31.5t9 25t26 17t33 7.5t30 -4.5t17.5 -17.5q6 -17 -4 -33t-26.5 -26t-35.5 -11.5t-32 11.5zM86 181q-17 17 -17.5 32t9 25.5t26 17t33 7.5t30 -4.5t17.5 -17.5q5 -17 -5 -33t-26.5 -26t-35 -11.5t-31.5 10.5z" />
    <glyph glyph-name="A" unicode="A" 
d="M566 20q-30 -18 -50.5 -3t-35 44.5t-23.5 63t-16 51.5q-8 4 -28 6.5t-50 3.5t-68.5 1.5t-82.5 0.5q-3 -15 -4.5 -33.5t-1.5 -37.5t0.5 -37t0.5 -31q-9 -11 -23.5 -14.5t-29 -2.5t-25.5 6t-14 11q-1 12 -2.5 29t-3.5 36t-6 37.5t-10 32.5q-3 6 -11 6.5t-16.5 0.5
t-16.5 2.5t-12 11.5q-6 12 -3.5 20t10 13.5t17 8.5t16.5 5q6 -1 7 1t-0.5 13t-5 34t-8 65t-9 106.5t-7.5 157.5q31 7 47 2t22 -20t5.5 -38.5t-1.5 -54.5t1.5 -67.5t13.5 -77.5q-4 89 12 149.5t44.5 91.5t65 31.5t74 -30t72.5 -93.5t60 -159q24 -93 43 -151.5t31.5 -95.5
t18.5 -58t3 -38zM223 248q47 1 96 1t93 -9q-6 13 -18 50.5t-27.5 83t-33 92t-35.5 78.5q-11 5 -22 -14t-21 -51.5t-18 -72t-12.5 -74t-5.5 -58.5t4 -26z" />
    <glyph glyph-name="B" unicode="B" horiz-adv-x="553" 
d="M241 21q-36 -19 -56.5 -15.5t-30.5 21t-14 45.5t-7 58t-9 58t-20 46q-16 12 -22 21.5t-6.5 19.5t2 20.5t4.5 24.5q-1 41 -13 76.5t-24 69t-19 66.5t1 69q12 11 22.5 12t20 -2t18 -8.5t16.5 -7.5q6 -2 17 2t22 9t21.5 10t15.5 6q60 23 107.5 18t80 -27t49 -56t14 -69.5
t-25 -67t-67.5 -48.5q28 3 57 -1t54.5 -15.5t45 -31t29.5 -47.5q14 -40 8 -74.5t-26 -62.5t-51 -49.5t-67 -36.5t-74 -23.5t-73 -9.5zM262 292q-47 -9 -61.5 -26t-11.5 -41t17 -54t24 -65q62 -10 110 6.5t76.5 45.5t36 63t-10 58t-61.5 31t-119 -18zM164 377q2 -9 17.5 -2
t33.5 19.5t32.5 24.5l14.5 12q46 42 64.5 70.5t17.5 45.5t-18 24t-41.5 6t-52 -8.5t-50 -20t-36 -28t-9.5 -31.5z" />
    <glyph glyph-name="C" unicode="C" horiz-adv-x="472" 
d="M462 265q10 -37 -2.5 -76.5t-40 -74t-67 -60.5t-82.5 -35.5t-85.5 0t-77.5 46.5t-58 104.5t-27 172.5q-3 60 8.5 113t33.5 93.5t52 65t63 26.5t66.5 -22t63.5 -80q8 -17 1.5 -31t-20 -22.5t-29.5 -10.5t-27 6q-29 41 -51.5 44.5t-38.5 -18t-25 -63t-10 -90t6 -98
t22 -87.5t39 -59.5t58 -13.5q30 0 56 13.5t48 33.5t40 42.5t33 41.5t27.5 30.5t23.5 8.5z" />
    <glyph glyph-name="D" unicode="D" horiz-adv-x="489" 
d="M101 13q-14 3 -29 15t-23.5 27t-6.5 30.5t22 26.5q1 37 -1.5 83.5t-6 96.5t-7 99t-4.5 90q-19 15 -24.5 34.5t-1.5 39.5t15 37.5t24.5 28.5t27.5 12.5t25 -11.5q32 3 66.5 2t68.5 -7t66.5 -18t60.5 -32q64 -58 87 -126.5t14.5 -137t-43.5 -129.5t-87 -103.5t-115 -60
t-128 2.5zM156 86q40 -1 76.5 14t66.5 43.5t52 70t33 95.5q4 67 -8 111t-38 71t-65.5 40t-89.5 17q-6 1 -16 1t-19 -2.5t-15.5 -8t-5.5 -15.5q4 -105 9.5 -218t19.5 -219z" />
    <glyph glyph-name="E" unicode="E" horiz-adv-x="559" 
d="M184 11q-17 6 -33.5 19t-29.5 39.5t-21 69.5t-8 110q-53 52 -66 104t4 99t57 85.5t92 64t111 35t113 -1.5q16 -5 22 -15t4.5 -21t-9 -22t-17.5 -18q-33 1 -71 -4t-75 -16.5t-68.5 -30.5t-49.5 -45.5t-19.5 -60.5t21.5 -76l65 59q10 9 24.5 12t28.5 1t26.5 -9.5
t18.5 -19.5q10 -19 6 -37t-16 -33.5t-28.5 -29t-32.5 -24.5t-28 -19.5t-15 -13.5q-3 -19 -5.5 -37t-1.5 -33.5t7.5 -29.5t21.5 -25q25 -20 59.5 -9t68 36t61 55t39.5 48q19 31 31.5 45.5t22 18t19.5 -1.5t24 -13q4 -32 -12 -67t-45 -67t-67 -59.5t-78.5 -45t-80 -23
t-70.5 6.5z" />
    <glyph glyph-name="F" unicode="F" horiz-adv-x="477" 
d="M147 0q-29 -1 -41 21t-15.5 52.5t-4 63t-5.5 53.5q-29 5 -43 18t-14.5 28t11.5 29.5t36 21.5q2 51 -0.5 101t-10.5 100q-18 6 -26.5 19t-8.5 27.5t9 27t26 18.5q7 4 25 5t55.5 6t98.5 16.5t156 36.5q24 6 39.5 -3t20.5 -23t-2.5 -29t-30.5 -21q-79 -19 -129.5 -30.5
t-79.5 -18t-40.5 -10.5t-13.5 -7q3 -13 3.5 -31t-0.5 -38.5t-1.5 -41.5t2.5 -39.5t10 -32.5t22 -21q79 29 123.5 30t58 -14t-4 -39.5t-63.5 -46.5q-5 -1 -18.5 -4t-29 -7t-29.5 -7t-20 -4q-27 -5 -33 -21t-2 -38t12.5 -46t10.5 -45.5t-8.5 -36.5t-44.5 -19z" />
    <glyph glyph-name="G" unicode="G" horiz-adv-x="553" 
d="M445 49q-109 -56 -186.5 -64.5t-128 17t-75.5 78t-29 117.5t12 135t48 131.5t77.5 107t101 61t119 -6.5t131.5 -95q5 -15 0 -27.5t-15 -20t-23.5 -9.5t-26.5 3q-47 41 -91 50t-82.5 -5t-70.5 -47t-55 -75.5t-36 -91t-13 -93.5t13.5 -82t43 -57.5t76.5 -19.5t114 32
q16 7 37 16t39 23.5t30 37.5t11 59q-10 7 -29.5 10.5t-42 6t-44.5 4.5t-35 5q-23 8 -34.5 24t-3.5 42q3 7 22 10t46 3t57.5 -4t58 -12.5t47.5 -20.5t25 -29q-2 -16 -0.5 -41.5t3.5 -53.5t3 -56.5t-1.5 -52t-10 -38t-22.5 -15.5q-26 -5 -37.5 5t-22.5 39z" />
    <glyph glyph-name="H" unicode="H" horiz-adv-x="543" 
d="M112 22q-8 -18 -14 18t-13 113t-15 188.5t-18 244.5q-2 7 3.5 18.5t15.5 21.5t22 16.5t22.5 4.5t17 -14t6.5 -39l27 -274q31 3 62.5 -4.5t62.5 -16.5t62.5 -16t64.5 -4q6 51 6.5 91.5t-1 78t-1 75.5t6.5 85q3 15 12 22t20.5 8.5t22.5 -3t17 -13.5q4 -81 4.5 -156.5
t1.5 -150t5.5 -150t17.5 -156.5q-25 -22 -42.5 -24t-29.5 10.5t-19 37t-11 54.5t-6 62.5t-3 61.5q-71 14 -118 21t-75.5 8.5t-40 -1.5t-11.5 -8q10 -56 15.5 -91.5t7 -57t0.5 -32t-2 -15.5q-5 -18 -15 -26.5t-22.5 -9t-25 5t-20.5 16.5z" />
    <glyph glyph-name="I" unicode="I" horiz-adv-x="212" 
d="M103 11q-2 1 -6 7.5t-5 8.5q2 42 2 70t-1 55t-3.5 58.5t-7 82t-10.5 125.5t-14 189q7 12 19 20.5t25.5 11t26.5 -2t21 -18.5q1 -78 8.5 -151t15.5 -144.5t13.5 -143t2.5 -146.5q-5 -14 -15 -21.5t-22.5 -10t-25.5 0t-24 9.5z" />
    <glyph glyph-name="J" unicode="J" horiz-adv-x="358" 
d="M60 16q-17 7 -27.5 18t-13.5 23t4 23t26 18q40 -23 80 -18t69 29.5t42 63t-1 82.5l-112 346q-5 16 9 27t33.5 14.5t39 0.5t27.5 -15q-3 -7 0 -26.5t9.5 -44.5t15 -51.5t16 -48t12 -34.5t4.5 -11q23 -57 36 -117t6.5 -114.5t-38 -99t-96.5 -70.5q-35 -14 -71 -11.5
t-70 16.5z" />
    <glyph glyph-name="K" unicode="K" horiz-adv-x="516" 
d="M150 9q-1 -18 -15 -27t-31 -9.5t-31.5 6.5t-17.5 21l-34 601q-1 14 10 23t26 12.5t29.5 1t20.5 -10.5q3 -5 7 -25t8.5 -47.5t8 -58t6.5 -58t3.5 -47.5t-0.5 -25q6 2 20.5 14.5t33 31.5t39.5 41.5t40 43t33.5 37t20.5 24.5q37 32 57.5 31t10 -36.5t-58.5 -105.5t-147 -175
l300 -107q23 -7 22 -26t-13.5 -36.5t-31 -25.5t-29.5 7l-296 107q2 -2 3.5 -2.5t2.5 -16t2 -52.5t1 -111z" />
    <glyph glyph-name="L" unicode="L" horiz-adv-x="521" 
d="M109 0q-19 -3 -30.5 15.5t-18.5 53t-10 80.5t-3.5 98t-1 105.5t-1.5 103t-4.5 91.5t-10.5 69q16 25 34.5 26.5t33.5 -11t24 -34t6 -41.5q5 -69 5.5 -126t1.5 -112.5t5.5 -115t18.5 -132.5l265 60q18 7 39.5 4t34.5 -12.5t11 -23t-31 -28.5q-87 -38 -179.5 -60t-188.5 -10
z" />
    <glyph glyph-name="M" unicode="M" horiz-adv-x="859" 
d="M166 47q3 1 2 -6t-5.5 -16t-12 -17.5t-18 -11t-23 3.5t-27.5 26l-77 569q-3 15 7.5 26t25.5 15t29 -0.5t17 -21.5l45 -218q19 99 51 150.5t68 62.5t73 -13.5t67 -76t49.5 -126t20.5 -163.5q20 79 53.5 152t72.5 129t80 90t75.5 35t58 -36.5t29.5 -124.5q2 -39 3.5 -87.5
t2.5 -100t1.5 -100.5t-0.5 -88t-4 -63.5t-8 -26.5q-8 -9 -19.5 -13.5t-23 -5t-20.5 3t-11 9.5q1 15 2.5 46t3.5 71.5t3.5 87.5t1.5 93.5t-1 88.5t-5 73.5t-11.5 49t-18.5 13.5q-23 -15 -47 -47.5t-48 -74.5t-46 -90.5t-41 -95t-34 -86.5t-24 -66.5t-11 -35t5 8.5
q-14 -18 -24 -23.5t-19 -3t-18.5 10.5t-21.5 16q0 170 -18.5 271.5t-46 143.5t-59 30.5t-57 -67t-40 -151t-7.5 -219.5z" />
    <glyph glyph-name="N" unicode="N" horiz-adv-x="662" 
d="M114 22q-8 -11 -21 -17t-25.5 -6t-24 7t-16.5 21q1 36 3 65.5t3.5 58.5t2.5 61.5t2.5 74.5t2 95.5t1.5 126.5q0 17 -3.5 41.5t-2 45.5t11.5 34t37 9q14 -2 24.5 -4t26 -14t40.5 -40t68 -83t109 -143t163 -219q19 26 25.5 72t5.5 101t-5.5 111.5t-8.5 103.5t-4.5 78
t8.5 34q20 3 33.5 1.5t22.5 -8t14.5 -18.5t10.5 -29q10 -66 16.5 -132.5t4 -132.5t-15.5 -131t-43 -127q-21 -34 -48.5 -34t-58.5 23t-65 63.5t-67.5 87.5t-65 96.5t-59 89.5t-48.5 65.5t-34 26.5q1 -48 3 -107t1 -120.5t-6 -120.5t-18 -107z" />
    <glyph glyph-name="O" unicode="O" horiz-adv-x="526" 
d="M245 12q-83 11 -133.5 55.5t-74 106t-22.5 132.5t21 135.5t57 114.5t85 70.5t104.5 3t116.5 -88.5q43 -41 70.5 -100t37 -122t-0.5 -124t-41.5 -106t-86 -67.5t-133.5 -9.5zM228 95q50 -18 85.5 -10t58 32t33.5 60.5t12.5 76.5t-5 79t-18.5 69q-31 68 -70 102.5t-77 33.5
t-72 -37.5t-54 -109.5q-11 -42 -12 -86t11 -84t38 -73t70 -53z" />
    <glyph glyph-name="P" unicode="P" horiz-adv-x="564" 
d="M59 27q-2 108 -3 183t-1 130.5t1 97t3 82.5q-26 21 -31.5 38.5t3 30.5t28 23t43 16.5t47.5 10t43 4.5q-16 0 3 1t56.5 -1.5t86 -10t92.5 -24t75.5 -44t34.5 -69.5q-7 -63 -42 -117t-87.5 -91.5t-117.5 -56.5t-133 -11q-3 -17 -4.5 -40.5t-1.5 -49.5t0.5 -51t0.5 -44
q-7 -19 -19.5 -30.5t-27 -13.5t-28 7t-21.5 30zM150 312q43 -13 95.5 -3.5t98.5 35t75.5 63.5t26.5 83q-1 16 -23.5 30t-55.5 24.5t-71 17t-71 6.5t-54.5 -7t-20.5 -22q-1 -20 -2 -48.5t-2 -60t0 -62.5t4 -56z" />
    <glyph glyph-name="Q" unicode="Q" horiz-adv-x="532" 
d="M468 -6q-21 -13 -33.5 -8t-20.5 16.5t-15.5 23t-18.5 11.5q-74 -38 -130.5 -41t-96.5 20t-65.5 66.5t-38.5 97.5t-15 113.5t4.5 113.5t20.5 98.5t33 68.5q46 47 93.5 60.5t93 1.5t86 -44.5t72.5 -78t52.5 -99.5t26 -109t-7 -106t-46.5 -91q-6 -11 -1.5 -20.5t12.5 -18
t16 -16.5t11 -16.5t-3.5 -19t-28.5 -23.5zM190 552q-20 -28 -35 -67.5t-23.5 -84.5t-10.5 -91t5 -87.5t23 -74t43 -50t65.5 -16.5t90.5 27l-114 201q-9 15 -1 23.5t22.5 13t29.5 5.5t20 1q6 -4 10 -11.5t14 -25.5t29 -50.5t55 -86.5q23 15 27 48.5t-5.5 74.5t-29.5 86
t-44.5 83t-51 65t-48.5 34q-17 5 -19.5 -4.5t-2 -21.5t-1 -22t-15.5 -7q-4 1 -9.5 5.5t-11 10t-9 11.5t-3.5 11z" />
    <glyph glyph-name="R" unicode="R" horiz-adv-x="453" 
d="M175 42q-1 -23 -15 -32t-31 -7t-32 13.5t-17 31.5q-1 9 -4 39t-9.5 92t-17.5 159.5t-27 241.5q-2 16 7.5 28.5t24 18t29.5 3t23 -15.5q4 -5 4.5 -14l1 -18t2.5 -16.5t9 -9.5q108 6 179.5 -15.5t93 -68t-12.5 -116.5t-137 -161l180 -6q20 0 26 -15t0 -33t-22.5 -32.5
t-40.5 -12.5q-33 1 -58 6.5t-48.5 10.5t-49 9t-58.5 2v-82zM124 453q-2 -13 -2.5 -36t2 -49t7.5 -51t13.5 -42t21.5 -23t30 7q73 57 97 97.5t17.5 67t-35 40t-60.5 16t-59.5 -4.5t-31.5 -22z" />
    <glyph glyph-name="S" unicode="S" horiz-adv-x="398" 
d="M224 9q-20 0 -55 10t-68 27t-56.5 39t-21.5 46q2 22 16.5 26.5t37 -1t50 -18t54 -24t50 -19.5t39 -5.5t19.5 20t-9 56.5q-13 42 -41.5 76t-63 65t-69.5 61.5t-61 64.5q-29 59 -24 97t32 59t70 27.5t88.5 2.5t87.5 -15.5t69 -26.5q10 -13 15.5 -29t4.5 -29.5t-10.5 -21.5
t-29.5 -5q-30 8 -62 20.5t-62 19t-56 1.5t-44 -32q-5 -19 8.5 -41t36 -46.5t52 -50.5t57 -52t49.5 -51.5t32 -48.5q22 -48 22.5 -86t-17.5 -64t-53.5 -39.5t-86.5 -12.5z" />
    <glyph glyph-name="T" unicode="T" horiz-adv-x="415" 
d="M293 41q1 -16 -13 -27.5t-30 -13t-28.5 9t-9.5 37.5l3 490q-15 1 -37 -1.5t-45.5 -4t-46 -1.5t-38.5 6.5t-23.5 21t0.5 40.5q29 5 68 11t82.5 10.5t89 7.5t86 3t74.5 -4.5t55 -14.5q6 -16 -0.5 -26t-22 -17t-36.5 -10.5t-43 -5.5t-42.5 -4t-33.5 -5z" />
    <glyph glyph-name="U" unicode="U" horiz-adv-x="505" 
d="M468 258q-25 -98 -61 -153t-77 -75.5t-84.5 -9.5t-83.5 46t-73 90.5t-54 124.5t-26 147t11 159q-2 24 10 37t29.5 16t37 -4t31.5 -22v-5q-18 -44 -21 -98t6 -109t27 -106t41.5 -89.5t50.5 -59.5t54 -15.5t51.5 41.5t43.5 112q6 39 7 83t-1.5 87t-7.5 80.5t-12 61.5
q-3 22 11.5 31.5t34 9.5t38 -8t24.5 -23q2 -5 3.5 -26t1.5 -52t-0.5 -68.5t-2 -74.5t-4 -71t-5.5 -57z" />
    <glyph glyph-name="V" unicode="V" horiz-adv-x="434" 
d="M217 11q-8 -4 -22.5 22t-31 69t-34.5 96.5t-34 105t-27.5 94.5t-16.5 64q-25 71 -32 109.5t-2 54.5t17.5 14.5t25.5 -10t23.5 -19t10.5 -13.5l141 -431q7 -8 13.5 23.5t18 94t30 151t50.5 193.5q9 9 20 11.5t22 -2t20 -16.5t14 -31q-21 -35 -34.5 -93.5t-24.5 -125.5
t-21.5 -134t-26.5 -120t-39.5 -83.5t-59.5 -23.5z" />
    <glyph glyph-name="W" unicode="W" horiz-adv-x="695" 
d="M99 28q-2 1 -3.5 5t-5 20.5t-9 49t-14.5 91.5t-22 148.5t-31 218.5q-3 22 9.5 35t28.5 16t30.5 -3.5t16.5 -24.5l41 -409q2 27 10.5 58t19 62.5t19.5 62.5t12 58q22 31 46 29.5t46.5 -19t42.5 -43.5t34 -44q52 -76 81.5 -116.5t43.5 -58.5t17.5 -20.5l3.5 -2.5
q7 14 14.5 46.5t14 75t13 92t11.5 97.5t9.5 90t8.5 71q4 10 15.5 16t24.5 7.5t25 -2.5t18 -16q1 -15 -1.5 -48.5t-7 -79t-11 -99t-14.5 -107t-17 -103t-18 -88.5t-18.5 -63t-17.5 -25q-12 -9 -33.5 10t-49 54t-58 79.5t-60.5 87t-57.5 76t-47.5 47.5q-8 -41 -16 -75
t-17 -67.5t-18.5 -68t-19.5 -75.5q-5 -17 -12 -31t-17.5 -21t-25.5 -6t-34 13z" />
    <glyph glyph-name="X" unicode="X" horiz-adv-x="499" 
d="M445 0q-11 -15 -27 -2t-34 40t-36.5 62t-34 65.5t-27 49t-15.5 13.5l-102 -179q-9 -16 -27.5 -21.5t-36.5 -1.5t-29 16.5t-5 33.5q2 8 15 28.5t30.5 47t36.5 55.5t34 55.5t22.5 46.5t2.5 28q-57 81 -99 138.5t-66 94t-28 53.5t14 17q21 0 38 -5.5t29.5 -13.5t21.5 -16
t14 -14q15 -17 30 -42t31 -50.5t33 -49t36 -37.5q3 6 11.5 21.5t19 35.5t22.5 42.5t22.5 42.5t19 35.5t12.5 21.5q8 14 24 20.5t32 4.5t28 -12t13 -29q-46 -68 -78.5 -134.5t-65.5 -134.5q5 -27 23.5 -60.5t41 -68t44.5 -67.5t34 -60t8 -45.5t-32 -24.5z" />
    <glyph glyph-name="Y" unicode="Y" horiz-adv-x="548" 
d="M359 16q-43 -17 -61 -6t-22.5 39.5t0 68.5t8.5 81t2 77.5t-20 57.5l-211 259q-16 19 -10.5 31.5t21 17t34.5 2t30 -12.5q33 -28 54.5 -55t40.5 -54t40.5 -54.5t54.5 -56.5q7 8 17.5 34t23.5 59t29 66t34.5 54t39 24t43.5 -25q0 -11 -9.5 -34.5t-23.5 -54t-30.5 -65.5
t-31.5 -69t-25.5 -65.5t-12.5 -54.5q-1 -4 -1.5 -23.5t-1.5 -46.5t-2 -58t-2.5 -58.5t-3.5 -49t-4 -28.5z" />
    <glyph glyph-name="Z" unicode="Z" horiz-adv-x="575" 
d="M558 20q-18 2 -50.5 -0.5t-73.5 -7.5t-86.5 -10t-89 -7.5t-81 -1t-62.5 10.5t-33.5 26.5t5.5 46.5q39 63 64.5 102t42 63t26.5 37.5t19 24.5t18.5 24.5t25.5 37.5t40 63t61 102q-47 -4 -92.5 -16.5t-87 -25.5t-78 -22t-66.5 -5q-32 8 -39 20.5t7.5 27t47 30.5t79 32
t105 30.5t123.5 26.5q31 7 56.5 -0.5t40 -24.5t14 -43t-20.5 -56l-257 -403q0 -1 -4.5 -10.5t-6.5 -14.5v-5q43 -4 81 0.5t75.5 10.5t76 11.5t82.5 3.5q22 -7 33.5 -31t4.5 -47z" />
    <glyph glyph-name="grave" unicode="`" horiz-adv-x="127" 
d="M116 519q-12 -31 -29.5 -30t-34.5 18.5t-30 44t-14 47.5q19 24 31 24.5t22.5 -13.5t22.5 -38.5t32 -52.5z" />
    <glyph glyph-name="asciicircum" unicode="^" horiz-adv-x="245" 
d="M241 385q5 -17 1 -29t-13.5 -18t-22.5 -4t-26 14q-8 9 -13 16t-9.5 15t-10.5 19.5t-16 30.5q-8 -23 -12 -32.5t-6 -14t-4 -8.5t-6 -16q-12 -24 -29 -30.5t-31.5 -1t-22.5 19.5t-2 30l37 91q11 20 27 31t34 12.5t36 -6.5t32 -27z" />
    <glyph glyph-name="bracketleft" unicode="[" horiz-adv-x="427" 
d="M91 -114q-11 -4 -19.5 28t-14 87t-7.5 127t-0.5 148t8 150t18.5 133t29 97t41 42q77 -9 129 -7.5t84.5 2.5t48 -4t20.5 -27q5 -37 -11 -49t-49 -12t-81 5t-107 3q-7 -7 -10.5 -49t-4.5 -103t-1.5 -133.5t-2 -142t-4.5 -128.5t-9 -92q16 -5 45.5 -5.5t61.5 0t62.5 1
t49.5 -1.5q29 -28 24 -44t-31.5 -24.5t-66.5 -10t-80.5 0t-74.5 4.5t-47 5z" />
    <glyph glyph-name="backslash" unicode="\" horiz-adv-x="356" 
d="M27 567q-14 17 -12.5 31t11.5 22.5t26.5 10.5t33.5 -4l257 -560q3 -5 1.5 -14.5t-10 -18t-24.5 -14.5t-41 -4z" />
    <glyph glyph-name="bracketright" unicode="]" horiz-adv-x="372" 
d="M312 -98q-13 -2 -47 -5t-74 -4.5t-80 0.5t-66.5 10.5t-31.5 24.5t24 44q19 2 49 1.5t62.5 -1t61.5 0t45 4.5q-6 33 -9 92t-4 128.5t-1.5 142.5t-1.5 134t-4.5 102.5t-10.5 49.5q-59 2 -107.5 -3.5t-81.5 -5.5t-48.5 12t-10.5 49q4 22 19.5 27t48 4t85 -2.5t129.5 8.5
q24 -4 41 -42t29 -97t18 -133t8 -150.5t0 -148.5t-7.5 -127t-14.5 -87t-20 -28z" />
    <glyph glyph-name="underscore" unicode="_" horiz-adv-x="571" 
d="M22 11q-6 3 -5 11t6 17t11.5 16.5t9.5 9.5q31 6 79 10.5t102 6.5t109 2t101.5 -2t79 -6.5t41.5 -11.5q13 -11 15.5 -19.5t-0.5 -16t-9 -13.5t-10 -12q-38 1 -88 -0.5t-104 -4t-108 -4t-100.5 -1t-81 4.5t-48.5 13z" />
    <glyph glyph-name="a" unicode="a" horiz-adv-x="405" 
d="M287 58q-12 -7 -37 -18.5t-55 -22t-61 -16.5t-55.5 -2.5t-37.5 20t-8 51.5q10 42 36.5 65t61.5 32t73.5 6.5t72.5 -11.5q10 35 11.5 74t-5.5 71t-22.5 53.5t-39 22t-55.5 -24.5t-72 -84q-13 -8 -27 -9.5t-25 4t-17 17.5t-2 32q68 98 124.5 135.5t100.5 31.5t75 -47
t47.5 -100t17.5 -127.5t-14 -129.5q25 -42 21.5 -63t-21.5 -22.5t-43.5 14.5t-43.5 48zM209 92q0 9 -15 11.5t-32 -0.5t-31.5 -11.5t-12.5 -22.5q3 -5 16 -4t29 5t29.5 10t16.5 12z" />
    <glyph glyph-name="b" unicode="b" horiz-adv-x="483" 
d="M184 79q-4 5 -6.5 -10t-11 -30.5t-25.5 -21.5t-49 16q-4 27 -7.5 68.5t-9.5 109.5t-16 170.5t-27 252.5q0 4 11 7t25 4t27 -1.5t18 -9.5q6 -36 11.5 -87t11 -105.5l11 -109t12.5 -98.5q17 28 40.5 52t51 41t59 25t63.5 4q56 -16 77.5 -48t16 -68.5t-32 -73t-66.5 -62
t-88.5 -34.5t-95.5 9zM327 277q-8 -3 -25.5 -10.5t-35.5 -22.5t-33 -38t-18 -57q75 0 114 23t49 49.5t-4.5 45.5t-46.5 10z" />
    <glyph glyph-name="c" unicode="c" horiz-adv-x="456" 
d="M483 217q0 -22 -24 -52.5t-61 -61.5t-83.5 -57.5t-91.5 -40t-85.5 -9.5t-65.5 34q-19 24 -29.5 53.5t-14.5 60.5t-2.5 62.5t7.5 59.5q19 88 45.5 137t55 68t57 14.5t52.5 -22.5t41 -44.5t22 -51t-3.5 -42t-36.5 -16.5q-14 7 -26 26t-23.5 36.5t-22 26t-20.5 -6.5
q-46 -66 -62.5 -122.5t-10.5 -97t32 -62.5t67 -19t93.5 34t111.5 96q13 12 29 17.5t28.5 5t19 -7t1.5 -18.5z" />
    <glyph glyph-name="d" unicode="d" horiz-adv-x="402" 
d="M326 0q-21 5 -30 18.5t-25 30.5q-50 -41 -92.5 -49.5t-75 4.5t-53 41t-26.5 61t4 63.5t38.5 48.5t77.5 16.5t120 -32.5q4 45 2 87.5t-8 91.5t-15 109.5t-20 141.5q2 5 15.5 8.5t30 4t32.5 -3t22 -11.5q3 -75 10 -153t14.5 -151t13 -136t5 -108t-9.5 -67.5t-30 -14.5z
M105 87q10 -8 28.5 -8.5t39 3.5t37.5 12t24 19q-25 31 -46.5 42.5t-38.5 11t-29 -11t-18 -24t-5.5 -26t8.5 -18.5z" />
    <glyph glyph-name="e" unicode="e" horiz-adv-x="384" 
d="M372 84q-34 -52 -77.5 -73t-87.5 -17.5t-84 29.5t-68.5 67t-41.5 94.5t-1 113.5q17 64 42.5 105t54.5 61t60 21t59.5 -14.5t52 -46t38.5 -73.5q5 -23 -6.5 -36t-32 -19.5t-47.5 -9t-54 -3.5t-50.5 -3.5t-36.5 -9.5q-10 -30 -5 -62.5t20.5 -60t40.5 -47t55.5 -24t65.5 9
t70 51.5q12 0 21.5 -4.5t14.5 -12t5 -17t-8 -19.5zM233 359q-9 18 -30 26t-44 6.5t-42 -13t-23 -33.5q9 1 26.5 2.5t38.5 3t41 3.5t33 5z" />
    <glyph glyph-name="f" unicode="f" horiz-adv-x="444" 
d="M152 0q-9 9 -17 32t-14 48t-11 45t-9 23q-21 -1 -39.5 -13.5t-35 -20t-32.5 -3.5t-32 36q-12 23 5 39t43.5 26.5t54 16t36.5 8.5q-16 119 -1.5 201t47 131.5t76.5 67t88.5 7.5t82 -46t57.5 -94q6 4 -1 -2.5t-19.5 -14t-27 -11t-24.5 7.5q-36 45 -66.5 60.5t-55.5 7.5
t-42.5 -36.5t-27.5 -69.5t-10.5 -92t8.5 -105q46 2 95.5 1.5t94.5 -16.5q19 -24 15.5 -39t-20.5 -24.5t-43 -13.5t-51 -5t-45 -0.5t-25 0.5q4 -16 9.5 -44.5t3.5 -55t-16.5 -43t-50.5 -9.5z" />
    <glyph glyph-name="g" unicode="g" horiz-adv-x="463" 
d="M306 -216q-16 16 -18.5 28.5t3.5 21.5t17 16.5t22 14.5t20 15t11 18q11 50 3 101t-19 99q-23 -40 -54.5 -65.5t-65 -35.5t-67 -4t-61.5 29t-47.5 63.5t-25.5 99.5q-14 74 4 133t54 96.5t83.5 50t93.5 -6.5t84 -73.5t55 -150.5q9 -46 21 -90t21.5 -85t15 -78.5t2 -70.5
t-18.5 -62t-46 -53q-13 -7 -25 -14.5t-23.5 -11t-21 -1t-17.5 15.5zM107 246q-5 -23 1.5 -57t22 -62t40 -41t56.5 5q38 31 55.5 67t19.5 70.5t-9 65.5t-29 52t-41 30t-45.5 -1t-41.5 -40.5t-29 -88.5z" />
    <glyph glyph-name="h" unicode="h" horiz-adv-x="468" 
d="M53 -6q-14 10 -21.5 22t-10.5 33.5t-3.5 58t-0.5 95t-2 144t-7 205.5q-4 30 10.5 49.5t34 26t37 0t19.5 -27.5v-324q71 84 133.5 111.5t109 5t72 -91.5t21.5 -178q0 -36 -13.5 -56t-31 -27.5t-33 -3t-18.5 17.5q-4 20 -5.5 48t-2.5 57.5t-3.5 58.5t-9 52t-18 37.5
t-30.5 14.5q-47 -13 -74.5 -48.5t-42.5 -79.5t-20.5 -91t-8.5 -83q-5 -7 -16 -12t-23 -8.5t-23.5 -5t-18.5 -0.5z" />
    <glyph glyph-name="i" unicode="i" horiz-adv-x="195" 
d="M184 33q-2 -6 -14 -12.5t-27 -10t-30 -2t-21 13.5q-14 30 -24 79t-17.5 102.5t-13 104t-9.5 82.5q1 3 4.5 13t12.5 19t25.5 12.5t44.5 -6.5l69 -395v0z" />
    <glyph glyph-name="j" unicode="j" horiz-adv-x="264" 
d="M54 -210q-14 -2 -25.5 1.5t-18 12t-7 20t7.5 25.5q15 5 32.5 11t33.5 14.5t29 21t19 30.5q7 52 -21 181t-90 325q-7 20 5 32.5t30.5 15.5t37.5 -4.5t25 -27.5l105 -425q14 -46 7.5 -88t-29.5 -74t-59.5 -51.5t-81.5 -19.5z" />
    <glyph glyph-name="k" unicode="k" horiz-adv-x="417" 
d="M86 5q-32 -5 -45.5 0.5t-16.5 19t-0.5 33.5t2.5 44l-8 508q7 20 22.5 26.5t31.5 4.5t29.5 -11t15.5 -19q0 -10 -0.5 -31t-1.5 -49t-1.5 -58.5t-0.5 -59t0.5 -51.5t1.5 -34q4 -2 22 15.5t39 40.5t39.5 43.5t24.5 25.5q12 11 29.5 13t32.5 -3.5t22 -17.5t-2 -29
q-7 -12 -21.5 -27t-32.5 -31.5t-37.5 -34.5t-35 -35.5t-25.5 -34.5t-10 -32q24 -9 51.5 -12t55 -3.5t53 -1t45.5 -3.5t31.5 -10t12.5 -22q-1 -25 -29.5 -35.5t-70.5 -11t-90 5t-88 11.5q-8 0 -8.5 -9t1 -23t3 -31t-1 -32t-11.5 -26t-28 -13z" />
    <glyph glyph-name="l" unicode="l" horiz-adv-x="141" 
d="M19 587q-2 19 9 31t27 17.5t32 3.5t25 -12q-4 -44 -3.5 -103.5t3.5 -123.5t7.5 -127.5t7.5 -116t3.5 -89t-3.5 -46.5q-2 -7 -13.5 -12t-24.5 -6.5t-24 1.5t-12 13z" />
    <glyph glyph-name="m" unicode="m" horiz-adv-x="755" 
d="M441 102q-38 -20 -54 -12.5t-25 37t-17 79t-29 113.5q-11 28 -26 37t-31 5t-32 -17t-29 -29.5t-22.5 -33t-11.5 -25.5q-5 -17 -4 -53t1.5 -74.5t-2.5 -72.5t-16 -46q-31 -13 -46 -4t-20.5 35.5t-6.5 67.5t-5.5 93t-15.5 112.5t-37 125.5q-4 15 8.5 23t30 9t34 -5
t20.5 -19l26 -86q40 59 84 80t83 8.5t68.5 -57.5t41.5 -118q10 38 37.5 75.5t62.5 66t74 44.5t72.5 10t56 -38t26.5 -99l-5 -295q0 -21 -10.5 -28.5t-25 -6.5t-30 7t-25.5 12q9 95 9.5 168t-7.5 117.5t-24.5 58.5t-41.5 -8.5t-59 -85.5t-77 -171z" />
    <glyph glyph-name="n" unicode="n" horiz-adv-x="509" 
d="M419 16q-3 18 -9 55t-13 79l-13.5 81t-10.5 61q-21 53 -42.5 74.5t-43 19t-41.5 -24t-37.5 -55t-32 -73.5t-24.5 -79t-14.5 -73t-2.5 -54q-9 -12 -21 -18.5t-24 -5.5t-22.5 9t-15.5 25q0 24 -1 56t-3.5 65t-6.5 63.5t-9 51.5q-4 15 -13.5 36t-13.5 41t2.5 35.5t35.5 19.5
q28 3 40 -12t16.5 -36.5t5 -43t5.5 -31.5q37 103 92.5 151.5t111.5 39.5t103 -78t67 -200l11 -88t0.5 -65.5t-21.5 -33.5t-55 8z" />
    <glyph glyph-name="o" unicode="o" horiz-adv-x="359" 
d="M118 5q-39 23 -63 62.5t-34.5 87t-9.5 97.5t11.5 94t28.5 76.5t41 45.5q45 17 82.5 9t67 -34t51 -65.5t34 -84.5t17 -92t-0.5 -88q-8 -33 -32.5 -58t-57.5 -39.5t-69 -17.5t-66 7zM109 301q-2 -13 -3 -37t0 -52.5t6 -56.5t16.5 -48t30.5 -29t48 2q32 12 46.5 38t16 58.5
t-8 68t-25 65t-35 50t-37.5 23t-33 -15.5t-22 -66z" />
    <glyph glyph-name="p" unicode="p" horiz-adv-x="453" 
d="M73 -136q-7 15 -12 45.5t-9 70.5t-8 86t-7.5 93t-8 91t-10.5 80q-9 45 10.5 74t53.5 44t74.5 16.5t73.5 -9.5q31 -9 64.5 -29.5t62.5 -48.5t50 -62t27 -70.5t-6.5 -73t-50.5 -69.5q-78 -45 -135 -59.5t-109 8.5q-3 -14 -0.5 -41.5t5.5 -56.5t5.5 -54t0.5 -35
q-12 -3 -23 -8t-20 -7t-16 1t-12 14zM122 359q-14 -57 -14.5 -109.5t19 -85.5t62.5 -38.5t117 31.5q36 39 38 74.5t-17 64.5t-51.5 50t-65 30.5t-58 6t-30.5 -23.5z" />
    <glyph glyph-name="q" unicode="q" horiz-adv-x="373" 
d="M282 -164q-8 7 -10 25t-1 40t3 46t3 44.5t-1.5 34.5t-9.5 16q-53 -38 -99 -42t-80 17t-52.5 62t-16 93t29 110t82.5 113q34 18 66.5 17t62.5 -14.5t56.5 -36t48.5 -46.5q-13 -103 -14.5 -180t1 -132t5 -89.5t-2.5 -53.5t-21 -24t-50 0zM141 80q27 -11 49.5 -0.5t39.5 33
t28 53t16.5 58t4.5 48.5t-8 25q-24 24 -49.5 26.5t-47.5 -10t-38 -36t-22 -50.5q-9 -38 -4 -77t31 -70z" />
    <glyph glyph-name="r" unicode="r" horiz-adv-x="353" 
d="M102 9q-9 -2 -19 -3.5t-18 1t-14 8.5t-8 19q6 76 1 135t-14 105t-17.5 81.5t-9.5 64.5q27 16 43 12.5t25.5 -19.5t14 -39.5t9.5 -47.5q38 61 78 87.5t73 25.5t54.5 -24.5t22.5 -61.5q1 -7 -11.5 -3.5t-31.5 7.5t-42 3t-42 -17q-20 -17 -31.5 -44t-17.5 -57t-8 -60t-3 -53
q-1 -18 2 -37.5t2 -36.5t-8.5 -29.5t-29.5 -16.5z" />
    <glyph glyph-name="s" unicode="s" horiz-adv-x="363" 
d="M125 11q-14 4 -32.5 18t-35 32t-28.5 37t-13 32.5t12.5 19t47.5 -2.5q9 -7 26.5 -24.5t38 -32t41 -20.5t35.5 11q5 35 -10.5 66t-38.5 60t-47.5 56.5t-38 56.5t-10 59.5t36.5 65.5q34 30 71.5 34t71 -7.5t58 -33t31 -42t-8.5 -34.5t-61 -10q-6 3 -16.5 16.5t-24.5 24.5
t-30.5 14t-33.5 -15q-10 -16 -4 -37.5t21 -45.5t36 -50t40.5 -51.5t35 -49.5t20.5 -44q5 -44 -11 -70.5t-44 -38t-64 -9.5t-71 15z" />
    <glyph glyph-name="t" unicode="t" horiz-adv-x="348" 
d="M232 9q-25 -16 -53 -13t-39 34l-15 178q-1 7 -18.5 4.5t-40.5 -4t-46.5 2.5t-35.5 24q-19 31 -10 45.5t31.5 19t50.5 3t48 -2.5q5 -1 8.5 2.5t5 8t2 9.5t0.5 7q2 32 3 57.5t1.5 49.5t0 49t-1.5 57q2 14 14.5 19t27.5 2.5t28.5 -9.5t17.5 -17q10 -25 11 -52t-1.5 -55
t-6 -56.5t-2.5 -55.5q4 0 15 -0.5t23 -1.5t23 -2t15 -1q10 -1 25.5 -4t28.5 -9.5t20.5 -17.5t1.5 -28q-7 -20 -26.5 -22.5t-42.5 0t-44.5 4t-33.5 -9.5q-2 -2 -1 -17.5t2.5 -38.5t4 -49.5t5 -50t3.5 -40t1 -19.5z" />
    <glyph glyph-name="u" unicode="u" horiz-adv-x="423" 
d="M169 5q-32 11 -57 41.5t-43.5 68.5t-30 78.5t-16.5 72.5q-2 16 -4 41.5t1.5 48.5t16 38.5t40.5 12.5q17 -1 23 -18t8.5 -45t4.5 -62.5t11.5 -70t30 -69t59.5 -57.5q33 -4 52 10t27.5 40t8.5 61t-4.5 74t-12 78.5t-13.5 74.5q5 15 17.5 19t27 2t28 -8t20.5 -13
q7 -43 15 -82t12 -78t1 -78t-18 -82q-12 -33 -33 -56t-48 -35t-59 -14t-65 7z" />
    <glyph glyph-name="v" unicode="v" horiz-adv-x="412" 
d="M234 5q-10 -3 -17 -4t-12 1.5t-10 8t-11 16.5l-168 342q-9 20 -0.5 31.5t25 14.5t34.5 -2t28 -17q25 -52 51.5 -100.5t51.5 -100.5q10 13 22.5 50t26 81t27 86t27.5 65q28 11 47.5 8.5t28.5 -14.5t5.5 -31.5t-21.5 -43.5q-11 -30 -23 -64t-24 -70t-21.5 -72t-13.5 -70
q-3 -27 0 -45t1.5 -30.5t-12.5 -21.5t-42 -18z" />
    <glyph glyph-name="w" unicode="w" horiz-adv-x="631" 
d="M198 33q-24 -23 -44.5 -23t-44.5 15l-78 300q-4 15 -12 40.5t-10.5 50t6.5 42.5t38 19q14 1 28 -5.5t17 -20.5q3 -9 9 -37t13 -60t13 -59.5t9 -35.5q25 55 54 68.5t60 0.5t63 -45.5t61 -68.5t55 -69t46 -47q10 12 14 38t8 67t11 96.5t22 126.5q4 14 17.5 20t28 6t26 -5
t12.5 -13q-2 -10 -5.5 -44t-8.5 -79.5t-11.5 -97t-14 -96t-16.5 -76.5t-19 -38q-30 -7 -59.5 8.5t-57 42t-54 59t-50.5 61.5t-47 48t-43 19q-11 -24 -17 -50.5t-9.5 -53.5t-5 -53.5t-4.5 -50.5z" />
    <glyph glyph-name="x" unicode="x" horiz-adv-x="402" 
d="M374 22q-13 -27 -30.5 -30t-36.5 7.5t-38.5 30t-36.5 38.5t-31 31.5t-22 9.5q-7 -7 -19 -21.5t-25 -30t-25.5 -29t-21.5 -18.5q-10 -6 -24 -7.5t-25.5 3t-17 16.5t0.5 33q9 15 25.5 32t33 37t29.5 42t15 46l-103 146q0 3 0.5 10t6.5 14.5t19.5 13.5t38.5 6q8 -2 22 -18
t28.5 -35.5t26 -37.5t15.5 -24q6 -8 13 -2.5t15.5 19t19 30.5t23.5 31t29 22.5t36 3.5q10 -3 16 -9.5t9 -15t2 -18t-5 -17.5q-5 -7 -16.5 -25t-24.5 -37.5l-25 -37.5t-16 -25q-6 -20 0.5 -36.5t19 -31t29 -28t32 -27.5t26 -29t12.5 -32z" />
    <glyph glyph-name="y" unicode="y" horiz-adv-x="453" 
d="M391 -341q-21 -17 -48.5 -19t-49 5.5t-31.5 23t4 33.5q9 5 23 6.5t28 8t25.5 23.5t16.5 53t0.5 95t-22.5 150q-56 -32 -102.5 -30.5t-82.5 26t-61.5 66t-41.5 90.5t-21.5 100.5t-0.5 94.5q6 14 19 21.5t27.5 7.5t27.5 -7t19 -22q3 -38 5.5 -74.5t9 -71t21 -67t41.5 -62.5
q15 -17 35 -17.5t38 8.5t30.5 25t14.5 32q3 29 0 58.5t-4.5 58.5t0.5 58t15 58q5 11 17 17.5t26.5 8.5t27.5 -1.5t21 -13.5q-16 -63 -12.5 -129t15.5 -132t25 -130.5t15.5 -126t-12 -118.5t-58.5 -107z" />
    <glyph glyph-name="z" unicode="z" horiz-adv-x="420" 
d="M92 0q-14 7 -24.5 21.5t-7.5 32.5q7 11 24 38t36 57.5t36 57.5t23 38q4 6 16.5 24t26 37.5t24 35.5t10.5 17q-57 -5 -111 -11t-89.5 -3.5t-43.5 18t27 53.5q24 -2 58 1t71 7t72 6t61.5 -3t40 -20t6.5 -44q-18 -39 -40 -74.5t-45 -70t-45 -69.5t-39 -73q47 3 85 14.5
t67 18t49.5 0.5t31.5 -39q-8 -13 -29.5 -24t-51 -19t-64 -13.5t-67 -9t-61.5 -4.5t-47 0z" />
    <glyph glyph-name="braceleft" unicode="{" horiz-adv-x="429" 
d="M213 -110q-18 5 -35 19.5t-30.5 44t-21.5 78.5t-8 123q-17 -2 -41 4t-42 17.5t-23 26t17 28.5q10 7 23 11t26 8.5t24 11t19 18.5q3 64 -4 119t-11.5 100.5t0 80t31 57.5t81.5 33t152 7q18 -3 21 -12t-2 -19.5t-15.5 -20t-18.5 -13.5q-19 -6 -43 -7.5t-47.5 -5t-42 -12.5
t-25.5 -30q-4 -28 -1 -57t9 -58.5t11.5 -59t7.5 -58.5q1 -21 -1.5 -55t-5.5 -73t-4 -79.5t4 -74t18 -56.5t38 -26q20 -3 35 -0.5t29 6t29.5 6t36.5 -0.5q11 -2 10 -11.5t-8 -21t-16 -21t-13 -11.5q-37 -24 -78.5 -24t-84.5 8z" />
    <glyph glyph-name="bar" unicode="|" horiz-adv-x="145" 
d="M19 587q-2 19 9 31t27 17.5t32 3.5t25 -12q-4 -44 -3.5 -103.5t3.5 -123.5t7.5 -127.5t7.5 -116t3.5 -89t-3.5 -46.5q-2 -7 -13.5 -12t-24.5 -6.5t-24 1.5t-12 13z" />
    <glyph glyph-name="braceright" unicode="}" horiz-adv-x="369" 
d="M48 -75q-12 17 -8 26t18.5 15t35 10.5t40.5 11.5t35.5 18.5t19.5 32.5q8 49 -1 82.5t-23.5 60.5t-28.5 53t-17 59q-2 44 4.5 85t15 79t16 74t7.5 71q-8 17 -27 15.5t-42.5 -7.5t-47 -10t-40.5 8q0 1 -1 7.5t-1 14t1.5 15t5.5 11.5q63 36 109 39.5t76 -16.5t45 -57.5
t15.5 -83t-12.5 -94.5t-38 -91q54 0 82 -6t38 -15t4.5 -20.5t-19 -22t-32 -20t-34.5 -14.5q37 -73 48 -129t2.5 -96t-32.5 -65.5t-57 -39t-71.5 -16t-74.5 3.5l-11 11v0z" />
    <glyph glyph-name="asciitilde" unicode="~" horiz-adv-x="401" 
d="M45 307q-20 25 -14 50.5t25.5 45.5t47 31.5t50.5 10.5q16 -2 28 -8.5t22.5 -15.5t20.5 -19t22 -18q10 -6 19.5 -6t17 4.5t11.5 13.5t2 20q-3 11 -9 18t-10.5 13.5t-4.5 13t8 16.5q47 10 69.5 -4t25 -38t-11.5 -52t-38 -47t-56 -22.5t-65 22.5q-13 7 -23.5 19.5
t-29.5 19.5q-20 6 -32 -2.5t-20 -22.5t-14 -29t-14 -22q-12 -2 -16 -1.5t-11 9.5z" />
    <glyph glyph-name="Euro" unicode="&#x20ac;" horiz-adv-x="481" 
d="M273 -6q-34 1 -54 19t-32 44.5t-18 57t-11.5 57t-12.5 44t-20 18.5q-8 0 -20 -3t-26 -4.5t-29.5 1t-29.5 13.5q-5 18 -7 33t7 25.5t33 16t72 4.5q4 1 6.5 5.5t3.5 10.5t1 12v10h-81q-11 0 -18.5 8t-10.5 19t-0.5 22t12.5 16q9 5 22.5 8.5t27.5 6.5t27 4.5t21 2.5
q4 63 26 104t52.5 64.5t66 31t67 4t56 -16.5t32.5 -30t-4 -36.5t-53 -36.5q-26 36 -50.5 39t-43 -13t-28.5 -43t-7 -51q7 -1 21 1t30 3.5t32 1.5t27.5 -5t16 -15t-2.5 -29q-1 -5 -10.5 -12.5t-15.5 -9.5l-114 -27v-32q1 0 13.5 1t30.5 1.5t37.5 -1t33.5 -6.5t19.5 -14
t-5.5 -25q-8 -12 -29 -19.5t-43 -12t-39.5 -7t-17.5 -5.5q-1 -12 0.5 -32t6 -41.5t12 -42.5t20 -34.5t29 -18t38.5 6.5q20 14 29 38.5t18.5 42.5t26 22t52.5 -22q4 -36 -7.5 -68.5t-37 -56.5t-63 -37.5t-85.5 -11.5z" />
    <glyph glyph-name="sterling" unicode="&#xa3;" horiz-adv-x="515" 
d="M385 16q-42 3 -86.5 2t-85.5 -1.5t-76 2t-57 12.5t-28.5 30t9.5 54q40 -20 65.5 -16t39 24.5t17.5 55t1 76.5q-17 1 -34 -1t-33.5 -5t-33.5 -4.5t-34 0.5q-24 10 -29 25t2 29t23.5 23.5t35.5 8.5q6 1 22.5 4t34.5 6.5t34.5 6.5t22.5 4q4 42 9.5 86t15.5 82.5t27.5 68.5
t45.5 43t69 5.5t99 -42.5q15 -10 28 -30.5t15.5 -40.5t-8.5 -32.5t-43 -5.5q-42 36 -71 46.5t-48.5 3.5t-30.5 -27.5t-16 -46.5t-5.5 -53t0.5 -46q23 2 46.5 -1t43.5 -9.5t33 -16t15 -19.5t-9.5 -19t-41.5 -16q-11 -2 -22.5 -2t-23.5 -0.5t-24 -2t-22 -6.5q-3 -24 -6 -44
t-7 -39.5t-9 -39t-12 -43.5q8 -9 34.5 -11t55 -0.5t50 3.5t19.5 1q15 -4 18.5 -15.5t0 -25t-13.5 -25.5t-22 -16z" />
    <glyph glyph-name="quotedbl" unicode="&#x22;" horiz-adv-x="304" 
d="M66 398q-21 4 -29.5 29t-11 56.5t-0.5 62.5t2 47q20 24 35.5 31t26.5 0.5t17 -25t8 -44.5q1 -17 5 -46t2.5 -56t-13 -44.5t-42.5 -10.5zM201 399q-21 4 -29.5 29t-11 57t-0.5 63t2 47q20 24 35.5 31t26.5 0t17 -25t8 -45q1 -17 5.5 -45.5t3 -55.5t-13.5 -44.5t-43 -11.5z
" />
    <glyph glyph-name="exclam" unicode="!" horiz-adv-x="128" 
d="M30 20q-5 13 -3 27t10 24t20 13.5t26 -4.5q30 -35 27.5 -52.5t-19 -22.5t-36.5 0t-25 15zM26 195q1 24 1 33.5t-0.5 19.5t-1 28t-0.5 58.5t1 112t3 187.5q20 11 32 13.5t32 -13.5q0 -18 0.5 -55t1 -82.5t1 -95t1 -92.5t0 -74t-0.5 -40q-3 -12 -11.5 -19.5t-19 -8t-21 6
t-18.5 21.5z" />
    <glyph glyph-name="semicolon" unicode=";" horiz-adv-x="163" 
d="M54 261q-14 8 -14.5 23.5t6 30t17.5 24.5t20 6q25 -2 32.5 -20.5t2.5 -37.5t-22 -29.5t-42 3.5zM114 120q14 -18 18.5 -45.5t2.5 -56t-9.5 -55t-19.5 -42t-26.5 -16.5t-30.5 20q10 30 8.5 64t-2.5 66q-5 15 -4 33t8 30t20.5 14.5t34.5 -12.5z" />
    <glyph glyph-name="less" unicode="&#x3c;" horiz-adv-x="434" 
d="M34 278q-8 4 -12.5 13.5t-5 20t4 20t13.5 13.5q48 12 86 23t74.5 22.5t74.5 22.5t86 23q12 -6 21 -19t11.5 -26.5t-3.5 -26t-24 -16.5q-18 0 -45 -7t-55.5 -15.5t-55.5 -17t-47 -12.5q22 -18 51.5 -33t59 -28.5t54 -27t37 -28.5t9 -33.5t-31.5 -41.5z" />
    <glyph glyph-name="quotedblbase" unicode="&#x201e;" horiz-adv-x="304" 
d="M85 -24q-21 4 -29.5 29t-11 56.5t-0.5 62.5t3 47q20 24 35.5 31t26.5 0.5t17 -25t8 -44.5q1 -17 5 -46t2.5 -56t-13.5 -44t-43 -11zM220 -23q-20 4 -29 29t-11 57t-0.5 63t2.5 47q20 24 35.5 31t26.5 0t17 -25t8 -45q1 -11 3 -28t3.5 -36t1 -37.5t-6 -32t-17.5 -20.5
t-33 -3z" />
    <glyph glyph-name="quotedblleft" unicode="&#x201c;" horiz-adv-x="304" 
d="M66 398q-21 4 -29.5 29t-11 56.5t-0.5 62.5t2 47q20 24 35.5 31t26.5 0.5t17 -25t8 -44.5q1 -17 5 -46t2.5 -56t-13 -44.5t-42.5 -10.5zM201 399q-21 4 -29.5 29t-11 57t-0.5 63t2 47q20 24 35.5 31t26.5 0t17 -25t8 -45q1 -17 5.5 -45.5t3 -55.5t-13.5 -44.5t-43 -11.5z
" />
    <glyph glyph-name="quotedblright" unicode="&#x201d;" horiz-adv-x="304" 
d="M66 398q-21 4 -29.5 29t-11 56.5t-0.5 62.5t2 47q20 24 35.5 31t26.5 0.5t17 -25t8 -44.5q1 -17 5 -46t2.5 -56t-13 -44.5t-42.5 -10.5zM201 399q-21 4 -29.5 29t-11 57t-0.5 63t2 47q20 24 35.5 31t26.5 0t17 -25t8 -45q1 -17 5.5 -45.5t3 -55.5t-13.5 -44.5t-43 -11.5z
" />
    <glyph glyph-name="quoteright" unicode="&#x2019;" horiz-adv-x="157" 
d="M77 320q-11 13 -18.5 31t-12.5 37.5t-6.5 38.5t-0.5 36q2 13 11 19t19.5 6t20 -6t12.5 -18l32 -111q3 -10 -3.5 -16.5t-16.5 -10.5t-20.5 -5.5t-16.5 -0.5z" />
    <glyph glyph-name="quoteleft" unicode="&#x2018;" horiz-adv-x="157" 
d="M77 320q-11 13 -18.5 31t-12.5 37.5t-6.5 38.5t-0.5 36q2 13 11 19t19.5 6t20 -6t12.5 -18l32 -111q3 -10 -3.5 -16.5t-16.5 -10.5t-20.5 -5.5t-16.5 -0.5z" />
    <glyph glyph-name="quotesinglbase" unicode="&#x201a;" horiz-adv-x="157" 
d="M67 -14q-11 13 -18.5 31t-12 37.5t-6 39t-0.5 36.5q1 13 10.5 19t20 5.5t20 -6.5t12.5 -18l32 -110q2 -10 -4.5 -17t-16.5 -11t-20.5 -5.5t-16.5 -0.5z" />
    <glyph glyph-name="exclamdown" unicode="&#xa1;" horiz-adv-x="128" 
d="M30 622.001q-5 -12.999 -3 -26.998t10 -23.999q8 -9.99902 20 -13.499q12 -3.49902 26 4.5q30 34.998 27.5 52.4971t-19 22.498q-16.5 5 -36.5 0q-20 -4.99902 -25 -14.999zM26 447.012q1 -23.998 1 -33.498q0 -9.49902 -0.5 -19.498q-0.5 -10 -1 -27.999t-0.5 -58.4961
q0 -40.498 1 -111.993q1 -71.4961 3 -187.488q20 -11 32 -13.5q12 -2.49902 32 13.5q0 17.998 0.5 54.9961t1 82.4951t1 94.9941t1 92.4941q0.5 42.998 0 73.9961t-0.5 39.9971q-3 11.999 -11.5 19.499q-8.5 7.49902 -19 7.99902t-21 -5.99902q-10.5 -6.5 -18.5 -21.499z
" />
    <glyph glyph-name="cent" unicode="&#xa2;" horiz-adv-x="456" 
d="M189 -2q-36 -6 -66.5 1t-50.5 31q-19 24 -29.5 53.5t-14.5 60.5t-2.5 62.5t7.5 59.5q11 53 26.5 91.5t33.5 64.5t38 40.5t41 19.5l-4 105q-2 19 9 31t27 17.5t32 3.5t25 -12q-3 -29 -4 -68.5t-1 -86.5q34 -16 61.5 -44t41 -55t9 -47t-34.5 -19q-13 7 -33 23t-41 33
l4 -130t4 -124q32 16 66 43t72 68q13 12 29 17.5t28.5 5t19 -7t1.5 -18.5q0 -19 -18.5 -45t-48.5 -53t-68 -52.5t-78 -43.5q0 -45 -0.5 -75t-3.5 -38q-2 -7 -13.5 -12t-24.5 -6.5t-24 1.5t-12 13zM174 391q-43 -63 -60.5 -117t-13.5 -94.5t26.5 -64t59.5 -25.5l-11 301h-1z
" />
    <glyph glyph-name="ellipsis" unicode="&#x2026;" horiz-adv-x="633" 
d="M97 26q-22 18 -22 36.5t12 30.5t31.5 14.5t37.5 -11.5q21 -17 20 -34.5t-13.5 -30t-31.5 -15.5t-34 10zM305 26q-22 18 -22.5 36.5t11.5 30.5t32 14.5t38 -11.5q21 -17 20 -34.5t-13.5 -30t-31.5 -15.5t-34 10zM512 26q-22 18 -22 36.5t12 30.5t32 14.5t38 -11.5
q21 -17 20 -34.5t-14 -30t-32 -15.5t-34 10z" />
    <glyph glyph-name="florin" unicode="&#x192;" horiz-adv-x="444" 
d="M23 -139q0 20 28.5 28.5t70.5 8.5q11 0 13 21t-1 51.5t-9.5 65.5t-12.5 63t-10 43t-1 6q-21 -1 -39.5 -13.5t-35 -20t-32.5 -3.5t-32 36q-12 23 5 39t43.5 26.5t54 16t36.5 8.5q-16 119 -1.5 201t47 131.5t76.5 67t88.5 7.5t82 -46t57.5 -94q6 4 -1 -2.5t-19.5 -14
t-27 -11t-24.5 7.5q-36 45 -66.5 60.5t-55.5 7.5t-42.5 -36.5t-27.5 -69.5t-10.5 -92t8.5 -105q46 2 95.5 1.5t94.5 -16.5q19 -24 15.5 -39t-20.5 -24.5t-43 -13.5t-51 -5t-45 -0.5t-25 0.5q0 -19 6 -51.5t12 -70.5t8 -77t-7 -70.5t-32 -51.5t-68 -20q-42 0 -72 15t-30 35z
" />
    <glyph glyph-name="circumflex" unicode="&#x2c6;" horiz-adv-x="245" 
d="M237 543q6 -17 2 -29t-14 -18t-23 -4.5t-25 13.5q-9 9 -14 16t-9.5 15t-10.5 20t-16 31q-8 -23 -12 -32.5t-6 -14t-4 -8.5t-6 -16q-12 -24 -29 -30.5t-31.5 -1t-22.5 19.5t-2 30l37 91q11 20 27 31t34 12.5t36 -6.5t32 -27z" />
    <glyph glyph-name="tilde" unicode="&#x2dc;" horiz-adv-x="401" 
d="M34 487q-20 25 -14 50.5t25.5 45.5t47 31.5t50.5 9.5q16 -1 28 -8t22.5 -16t20.5 -19t22 -17q10 -6 19.5 -6t17 4.5t11.5 13.5t2 20q-3 10 -9 17.5t-10.5 13.5t-4.5 13t8 17q47 10 69.5 -4t25 -38.5t-11.5 -52.5t-38 -47t-56 -22t-65 23q-13 7 -23.5 19.5t-29.5 19.5
q-20 6 -32 -2.5t-20 -22.5t-14 -29t-14 -22q-12 -2 -16 -1.5t-11 9.5z" />
    <glyph glyph-name="acute" unicode="&#xb4;" horiz-adv-x="127" 
d="M8 519q20 28 32 52.5t22.5 38.5t22.5 13.5t31 -24.5q-2 -21 -14.5 -47.5t-29.5 -44t-34.5 -18.5t-29.5 30z" />
    <glyph glyph-name="dieresis" unicode="&#xa8;" horiz-adv-x="316" 
d="M56 509q-22 18 -22 36.5t12 30.5t32 14.5t38 -11.5q21 -17 20 -35t-14 -30t-32 -15t-34 10zM208 512q-22 18 -22 36.5t12 30.5t31.5 14.5t37.5 -11.5q21 -17 20 -35t-13.5 -30t-31.5 -15t-34 10z" />
    <glyph glyph-name="cedilla" unicode="&#xb8;" horiz-adv-x="266" 
d="M112 -205q-17 6 -34.5 20.5t-25.5 29.5t-1 26.5t39 10.5q7 -5 17 -13.5t21 -14.5t23.5 -6.5t24.5 11.5q10 21 3 29t-22.5 11.5t-36 7t-37.5 14t-26.5 32t-3.5 62.5q31 16 45.5 9.5t19.5 -20t4 -26t0 -7.5q0 -11 19 -15.5t42 -11.5t43.5 -19t25.5 -37q8 -29 -1.5 -50
t-30.5 -33t-49.5 -14.5t-58.5 4.5z" />
    <glyph glyph-name="questiondown" unicode="&#xbf;" horiz-adv-x="352" 
d="M182.011 352.018q8 11.999 8.5 26.498q0.499023 14.499 -0.5 28.498q-1 13.999 -1.5 25.999q-0.5 11.999 6.49902 20.998q7 9 24.499 12.5q17.499 3.49902 50.4971 -0.5q1.99902 -31.998 0 -63.4961q-2 -31.498 -15.999 -61.4971q-3 -6.99902 -20.999 -26.498
t-40.498 -44.4971q-22.498 -24.999 -43.4971 -52.9971t-30.498 -53.4961q-9.49902 -25.499 -2.5 -44.498q7 -18.998 40.998 -26.998q25.998 -6 48.9971 7q22.998 12.999 42.4971 28.498t35.998 24.498q16.499 9 29.498 -4q12.999 -12.999 9.99902 -28.498t-13.999 -29.998
t-25.498 -26.498t-23.499 -17.999q-35.998 -23.999 -79.4951 -32.998t-79.4951 0.5t-56.9961 39.4971q-20.999 29.999 -13 84.9951q5 28.998 23.499 58.9971q18.499 29.998 41.4971 57.9961q22.999 27.998 46.4971 52.9971q23.499 24.998 38.498 44.9971zM243.007 620.001
q21.999 -17.999 21.999 -36.498t-11.999 -30.998q-12 -12.499 -31.998 -14.999q-19.999 -2.5 -37.998 11.499q-20.999 16.999 -19.999 34.998t13.999 29.998q13 12 31.998 15.499q18.999 3.5 33.998 -9.49902z" />
    <glyph glyph-name="multiply" unicode="&#xd7;" horiz-adv-x="402" 
d="M358 99q-12 -22 -26.5 -24.5t-31 6.5t-33 25t-31.5 31.5t-27 25.5t-19 8q-6 -6 -16.5 -17.5t-21.5 -24.5t-22 -24t-18 -15q-9 -5 -21 -6.5t-22 2.5t-15 13.5t1 27.5q7 12 21 26t28.5 30.5t25.5 34.5t13 38l-88 121q0 2 0.5 8t5.5 12t16.5 11t32.5 5q7 -2 19 -15t24.5 -29
t23 -30.5t13.5 -19.5q5 -7 11 -2.5t13 15.5t16.5 25t20.5 26t25 18.5t31 2.5t21.5 -19.5t-2.5 -29.5q-4 -6 -14 -20.5t-21.5 -31t-21.5 -31t-14 -20.5q-5 -16 0.5 -30t16 -26t25 -23t27.5 -22.5t22.5 -24t11.5 -27.5z" />
    <glyph glyph-name="divide" unicode="&#xf7;" horiz-adv-x="445" 
d="M176 365q-17 17 -17.5 31.5t9 25t25.5 17t32.5 7.5t30 -4.5t17.5 -17.5q6 -17 -4 -33t-26.5 -26t-35.5 -11.5t-31 11.5zM182 77q-17 17 -17.5 32t9 25.5t26 17t33 7.5t30 -4.5t17.5 -17.5q6 -17 -4 -33t-26.5 -26t-35.5 -11.5t-32 10.5zM89 205q-30 12 -37 30t1.5 34
t30 25.5t48.5 5.5l192 -4q20 2 38 -5.5t26.5 -20.5t5 -29t-27.5 -31z" />
    <glyph glyph-name="thorn" unicode="&#xfe;" horiz-adv-x="432" 
d="M12 649h80l-3 -157q34 15 75 17t74 -9q42 -13 85.5 -42t70 -68.5t25.5 -87t-48 -97.5q-78 -45 -142.5 -59.5t-116.5 8.5q-3 -14 0.5 -35.5t8.5 -44t8.5 -42t0.5 -29.5q-24 -6 -48 -3t-34 26zM127 387q-7 -48 -5.5 -83.5t19.5 -54t56 -17t104 27.5q22 39 18.5 69.5
t-22 51.5t-46.5 32t-55 12t-47 -8.5t-22 -29.5z" />
    <glyph glyph-name="Thorn" unicode="&#xde;" horiz-adv-x="483" 
d="M184 79q-1 -45 3.5 -83t1 -63t-22 -34.5t-64.5 2.5q-3 18 -5 40t-4.5 52t-5.5 71.5t-8 99t-13 133.5t-19 176q0 4 11 7.5t25 4t27 -2t18 -9.5q6 -36 9 -61.5t5.5 -50t6 -54t10.5 -73.5q17 28 40.5 52t51 41t59 25t63.5 4q56 -16 77.5 -48t16 -68.5t-32 -73t-66.5 -62
t-88.5 -34.5t-95.5 9zM327 277q-8 -3 -25.5 -10.5t-35.5 -22.5t-33 -38t-18 -57q75 0 114 23t49 49.5t-4.5 45.5t-46.5 10z" />
    <glyph glyph-name="yen" unicode="&#xa5;" horiz-adv-x="548" 
d="M220 215q-15 5 -22.5 14.5t-8.5 20.5t5.5 20.5t19.5 14.5q8 3 26.5 6t42.5 5q-4 22 -17 38l-211 259q-16 19 -10.5 31.5t21 17t34.5 2t30 -12.5q33 -28 54.5 -55t40.5 -54t40.5 -54.5t54.5 -56.5q7 8 17.5 34t23.5 59t29 66t34.5 54t39 24t43.5 -25q0 -16 -17.5 -55
t-40 -87t-44 -97t-28.5 -86q35 -3 59.5 -14t20.5 -32q-4 -19 -27 -24.5t-59 -7.5q0 -9 -0.5 -20t-0.5 -22q40 -2 68.5 -11.5t25.5 -29.5q-4 -26 -30.5 -34t-67.5 -8q-2 -28 -3.5 -49.5t-3.5 -29.5q-30 -12 -47.5 -10t-26.5 14t-11 32.5t0 46.5h-47q-15 5 -22.5 14.5
t-8.5 20.5t5.5 21t19.5 15q7 1 23.5 3t37.5 4q2 11 2.5 21.5t1.5 21.5q-17 -1 -33.5 -2t-32.5 -3z" />
    <glyph glyph-name="germandbls" unicode="&#xdf;" horiz-adv-x="518" 
d="M197 -102q-13 -7 -28.5 -9.5t-28.5 0t-21 10.5t-6 22q5 28 0.5 69t-13 90t-19.5 103.5t-20.5 110t-15.5 108.5t-4 100q2 46 28 72.5t64.5 36.5t84 5.5t85.5 -20t68.5 -40t34.5 -54.5t-17 -64t-87 -68q28 3 57 -1t54 -15.5t44.5 -31.5t29.5 -48q17 -50 4 -91t-45 -72
t-77 -52t-92 -31l13 84q47 7 79 30t48 51t14 56.5t-24 46.5t-65.5 21t-109.5 -19q-25 18 -30.5 37t0 35.5t17 28.5t19.5 17q47 29 66.5 52.5t18.5 40.5t-18 28t-41.5 15t-53 2t-52 -11t-38.5 -25t-13 -38q17 -70 28.5 -138t21.5 -138.5t19 -146t21 -159.5z" />
    <glyph glyph-name="eth" unicode="&#xf0;" horiz-adv-x="502" 
d="M216 336q-17 9 -23 22t-3.5 26t10 24.5t17.5 17.5l70 19q-19 51 -40 95.5t-31 70.5l4 6q3 6 15.5 10t26.5 4.5t26.5 -3t16.5 -12.5q7 -17 13.5 -32.5t13.5 -33t14 -37.5t16 -46l74 24q15 1 29 -8t21 -22t5.5 -27t-17.5 -23l-90 -31q5 -26 8.5 -54t5 -54t1 -49t-3.5 -39
q-15 -84 -44 -128t-65.5 -57.5t-76 -1.5t-74.5 40t-62 67.5t-37.5 80.5t-1.5 78.5t46 62.5q32 16 62 0.5t56 -50t46 -83t32 -99.5q24 27 37 58.5t16.5 65.5t-0.5 69.5t-13 71.5zM198 75q8 15 6.5 35.5t-10 42.5t-21.5 43.5t-26.5 37.5t-25.5 24t-19 5q-12 -21 -10.5 -44.5
t11 -46t24.5 -42.5t29.5 -34t26.5 -20t15 -1z" />
    <glyph glyph-name="Aacute" unicode="&#xc1;" 
d="M566 20q-30 -18 -50.5 -3t-35 44.5t-23.5 63t-16 51.5q-8 4 -28 6.5t-50 3.5t-68.5 1.5t-82.5 0.5q-3 -15 -4.5 -33.5t-1.5 -37.5t0.5 -37t0.5 -31q-9 -11 -23.5 -14.5t-29 -2.5t-25.5 6t-14 11q-1 12 -2.5 29t-3.5 36t-6 37.5t-10 32.5q-3 6 -11 6.5t-16.5 0.5
t-16.5 2.5t-12 11.5q-6 12 -3.5 20t10 13.5t17 8.5t16.5 5q6 -1 7 1t-0.5 13t-5 34t-8 65t-9 106.5t-7.5 157.5q31 7 47 2t22 -20t5.5 -38.5t-1.5 -54.5t1.5 -67.5t13.5 -77.5q-4 89 12 149.5t44.5 91.5t65 31.5t74 -30t72.5 -93.5t60 -159q24 -93 43 -151.5t31.5 -95.5
t18.5 -58t3 -38zM223 248q47 1 96 1t93 -9q-6 13 -18 50.5t-27.5 83t-33 92t-35.5 78.5q-11 5 -22 -14t-21 -51.5t-18 -72t-12.5 -74t-5.5 -58.5t4 -26zM223 712q20 28 32 52.5t22.5 38.5t22.5 13.5t31 -24.5q-2 -21 -14.5 -47.5t-29.5 -44t-34.5 -18.5t-29.5 30z" />
    <glyph glyph-name="Acircumflex" unicode="&#xc2;" 
d="M566 20q-30 -18 -50.5 -3t-35 44.5t-23.5 63t-16 51.5q-8 4 -28 6.5t-50 3.5t-68.5 1.5t-82.5 0.5q-3 -15 -4.5 -33.5t-1.5 -37.5t0.5 -37t0.5 -31q-9 -11 -23.5 -14.5t-29 -2.5t-25.5 6t-14 11q-1 12 -2.5 29t-3.5 36t-6 37.5t-10 32.5q-3 6 -11 6.5t-16.5 0.5
t-16.5 2.5t-12 11.5q-6 12 -3.5 20t10 13.5t17 8.5t16.5 5q6 -1 7 1t-0.5 13t-5 34t-8 65t-9 106.5t-7.5 157.5q31 7 47 2t22 -20t5.5 -38.5t-1.5 -54.5t1.5 -67.5t13.5 -77.5q-4 89 12 149.5t44.5 91.5t65 31.5t74 -30t72.5 -93.5t60 -159q24 -93 43 -151.5t31.5 -95.5
t18.5 -58t3 -38zM223 248q47 1 96 1t93 -9q-6 13 -18 50.5t-27.5 83t-33 92t-35.5 78.5q-11 5 -22 -14t-21 -51.5t-18 -72t-12.5 -74t-5.5 -58.5t4 -26zM376 733q6 -17 2 -29t-14 -18t-23 -4.5t-25 13.5q-9 9 -14 16t-9.5 15t-10.5 20t-16 31q-8 -23 -12 -32.5t-6 -14
t-4 -8.5t-6 -16q-12 -24 -29 -30.5t-31.5 -1t-22.5 19.5t-2 30l37 91q11 20 27 31t34 12.5t36 -6.5t32 -27z" />
    <glyph glyph-name="Agrave" unicode="&#xc0;" 
d="M566 20q-30 -18 -50.5 -3t-35 44.5t-23.5 63t-16 51.5q-8 4 -28 6.5t-50 3.5t-68.5 1.5t-82.5 0.5q-3 -15 -4.5 -33.5t-1.5 -37.5t0.5 -37t0.5 -31q-9 -11 -23.5 -14.5t-29 -2.5t-25.5 6t-14 11q-1 12 -2.5 29t-3.5 36t-6 37.5t-10 32.5q-3 6 -11 6.5t-16.5 0.5
t-16.5 2.5t-12 11.5q-6 12 -3.5 20t10 13.5t17 8.5t16.5 5q6 -1 7 1t-0.5 13t-5 34t-8 65t-9 106.5t-7.5 157.5q31 7 47 2t22 -20t5.5 -38.5t-1.5 -54.5t1.5 -67.5t13.5 -77.5q-4 89 12 149.5t44.5 91.5t65 31.5t74 -30t72.5 -93.5t60 -159q24 -93 43 -151.5t31.5 -95.5
t18.5 -58t3 -38zM223 248q47 1 96 1t93 -9q-6 13 -18 50.5t-27.5 83t-33 92t-35.5 78.5q-11 5 -22 -14t-21 -51.5t-18 -72t-12.5 -74t-5.5 -58.5t4 -26zM332 722q-12 -31 -29.5 -30t-34.5 18.5t-30 44t-14 47.5q19 24 31 24.5t22.5 -13.5t22.5 -38.5t32 -52.5z" />
    <glyph glyph-name="Adieresis" unicode="&#xc4;" 
d="M566 20q-30 -18 -50.5 -3t-35 44.5t-23.5 63t-16 51.5q-8 4 -28 6.5t-50 3.5t-68.5 1.5t-82.5 0.5q-3 -15 -4.5 -33.5t-1.5 -37.5t0.5 -37t0.5 -31q-9 -11 -23.5 -14.5t-29 -2.5t-25.5 6t-14 11q-1 12 -2.5 29t-3.5 36t-6 37.5t-10 32.5q-3 6 -11 6.5t-16.5 0.5
t-16.5 2.5t-12 11.5q-6 12 -3.5 20t10 13.5t17 8.5t16.5 5q6 -1 7 1t-0.5 13t-5 34t-8 65t-9 106.5t-7.5 157.5q31 7 47 2t22 -20t5.5 -38.5t-1.5 -54.5t1.5 -67.5t13.5 -77.5q-4 89 12 149.5t44.5 91.5t65 31.5t74 -30t72.5 -93.5t60 -159q24 -93 43 -151.5t31.5 -95.5
t18.5 -58t3 -38zM223 248q47 1 96 1t93 -9q-6 13 -18 50.5t-27.5 83t-33 92t-35.5 78.5q-11 5 -22 -14t-21 -51.5t-18 -72t-12.5 -74t-5.5 -58.5t4 -26zM164 693q-22 18 -22 36.5t12 30.5t32 14.5t38 -11.5q21 -17 20 -35t-14 -30t-32 -15t-34 10zM316 696q-22 18 -22 36.5
t12 30.5t31.5 14.5t37.5 -11.5q21 -17 20 -35t-13.5 -30t-31.5 -15t-34 10z" />
    <glyph glyph-name="macron" unicode="&#xaf;" horiz-adv-x="384" 
d="M56 513q-30 12 -37 30.5t2 34t30 25.5t48 6l192 -4q20 2 38 -5.5t27 -20.5t5 -29t-28 -31z" />
    <glyph glyph-name="macron" unicode="&#x2c9;" horiz-adv-x="384" 
d="M56 513q-30 12 -37 30.5t2 34t30 25.5t48 6l192 -4q20 2 38 -5.5t27 -20.5t5 -29t-28 -31z" />
    <glyph glyph-name="Aring" unicode="&#xc5;" 
d="M251 657q-33 10 -49 30t-18 40.5t8 37.5t30 23q43 10 78.5 5t58.5 -20t30.5 -36.5t-4.5 -44.5q-5 -10 -20 -18t-34.5 -13t-41 -6t-38.5 2zM247 738q-5 -12 3.5 -24t32.5 -5q35 0 40 10t-6.5 19.5t-32.5 12t-37 -12.5zM566 20q-30 -18 -50.5 -3t-35 44.5t-23.5 63
t-16 51.5q-8 4 -28 6.5t-50 3.5t-68.5 1.5t-82.5 0.5q-3 -15 -4.5 -33.5t-1.5 -37.5t0.5 -37t0.5 -31q-9 -11 -23.5 -14.5t-29 -2.5t-25.5 6t-14 11q-1 12 -2.5 29t-3.5 36t-6 37.5t-10 32.5q-3 6 -11 6.5t-16.5 0.5t-16.5 2.5t-12 11.5q-6 12 -3.5 20t10 13.5t17 8.5
t16.5 5q6 -1 7 1t-0.5 13t-5 34t-8 65t-9 106.5t-7.5 157.5q31 7 47 2t22 -20t5.5 -38.5t-1.5 -54.5t1.5 -67.5t13.5 -77.5q-4 89 12 149.5t44.5 91.5t65 31.5t74 -30t72.5 -93.5t60 -159q24 -93 43 -151.5t31.5 -95.5t18.5 -58t3 -38zM223 248q47 1 96 1t93 -9
q-6 13 -18 50.5t-27.5 83t-33 92t-35.5 78.5q-11 5 -22 -14t-21 -51.5t-18 -72t-12.5 -74t-5.5 -58.5t4 -26z" />
    <glyph glyph-name="Atilde" unicode="&#xc3;" 
d="M566 20q-30 -18 -50.5 -3t-35 44.5t-23.5 63t-16 51.5q-8 4 -28 6.5t-50 3.5t-68.5 1.5t-82.5 0.5q-3 -15 -4.5 -33.5t-1.5 -37.5t0.5 -37t0.5 -31q-9 -11 -23.5 -14.5t-29 -2.5t-25.5 6t-14 11q-1 12 -2.5 29t-3.5 36t-6 37.5t-10 32.5q-3 6 -11 6.5t-16.5 0.5
t-16.5 2.5t-12 11.5q-6 12 -3.5 20t10 13.5t17 8.5t16.5 5q6 -1 7 1t-0.5 13t-5 34t-8 65t-9 106.5t-7.5 157.5q31 7 47 2t22 -20t5.5 -38.5t-1.5 -54.5t1.5 -67.5t13.5 -77.5q-4 89 12 149.5t44.5 91.5t65 31.5t74 -30t72.5 -93.5t60 -159q24 -93 43 -151.5t31.5 -95.5
t18.5 -58t3 -38zM223 248q47 1 96 1t93 -9q-6 13 -18 50.5t-27.5 83t-33 92t-35.5 78.5q-11 5 -22 -14t-21 -51.5t-18 -72t-12.5 -74t-5.5 -58.5t4 -26zM96 661q-20 25 -14 50.5t25.5 45.5t47 31.5t50.5 9.5q16 -1 28 -8t22.5 -16t20.5 -19t22 -17q10 -6 19.5 -6t17 4.5
t11.5 13.5t2 20q-3 10 -9 17.5t-10.5 13.5t-4.5 13t8 17q47 10 69.5 -4t25 -38.5t-11.5 -52.5t-38 -47t-56 -22t-65 23q-13 7 -23.5 19.5t-29.5 19.5q-20 6 -32 -2.5t-20 -22.5t-14 -29t-14 -22q-12 -2 -16 -1.5t-11 9.5z" />
    <glyph glyph-name="AE" unicode="&#xc6;" horiz-adv-x="970" 
d="M566 20q-30 -18 -50.5 -3t-35 44.5t-23.5 63t-16 51.5q-8 4 -28 6.5t-50 3.5t-68.5 1.5t-82.5 0.5q-3 -15 -4.5 -33.5t-1.5 -37.5t0.5 -37t0.5 -31q-9 -11 -23.5 -14.5t-29 -2.5t-25.5 6t-14 11q-1 12 -2.5 29t-3.5 36t-6 37.5t-10 32.5q-3 6 -11 6.5t-16.5 0.5
t-16.5 2.5t-12 11.5q-6 12 -3.5 20t10 13.5t17 8.5t16.5 5q6 -1 7 1t-0.5 13t-5 34t-8 65t-9 106.5t-7.5 157.5q31 7 47 2t22 -20t5.5 -38.5t-1.5 -54.5t1.5 -67.5t13.5 -77.5q-4 89 12 149.5t44.5 91.5t65 31.5t74 -30t72.5 -93.5t60 -159q24 -93 43 -151.5t31.5 -95.5
t18.5 -58t3 -38zM223 248q47 1 96 1t93 -9q-6 13 -18 50.5t-27.5 83t-33 92t-35.5 78.5q-11 5 -22 -14t-21 -51.5t-18 -72t-12.5 -74t-5.5 -58.5t4 -26zM599 23q-17 6 -33.5 19t-29.5 39.5t-21 69.5t-8 110q-53 52 -66 104t4 99t57 85.5t92 64t111 35t113 -1.5q16 -5 22 -15
t4.5 -21t-9 -22t-17.5 -18q-33 1 -71 -4t-75 -16.5t-68.5 -30.5t-49.5 -45.5t-19.5 -60.5t21.5 -76l65 59q10 9 24.5 12t28.5 1t26.5 -9.5t18.5 -19.5q10 -19 6 -37t-16 -33.5t-28.5 -29t-32.5 -24.5t-28 -19.5t-15 -13.5q-3 -19 -5.5 -37t-1.5 -33.5t7.5 -29.5t21.5 -25
q25 -20 59.5 -9t68 36t61 55t39.5 48q19 31 31.5 45.5t22 18t19.5 -1.5t24 -13q4 -32 -12 -67t-45 -67t-67 -59.5t-78.5 -45t-80 -23t-70.5 6.5z" />
    <glyph glyph-name="Ccedilla" unicode="&#xc7;" horiz-adv-x="472" 
d="M462 265q10 -37 -2.5 -76.5t-40 -74t-67 -60.5t-82.5 -35.5t-85.5 0t-77.5 46.5t-58 104.5t-27 172.5q-3 60 8.5 113t33.5 93.5t52 65t63 26.5t66.5 -22t63.5 -80q8 -17 1.5 -31t-20 -22.5t-29.5 -10.5t-27 6q-29 41 -51.5 44.5t-38.5 -18t-25 -63t-10 -90t6 -98
t22 -87.5t39 -59.5t58 -13.5q30 0 56 13.5t48 33.5t40 42.5t33 41.5t27.5 30.5t23.5 8.5zM245 -185q-17 6 -34.5 20.5t-25.5 29.5t-1 26.5t39 10.5q7 -5 17 -13.5t21 -14.5t23.5 -6.5t24.5 11.5q10 21 3 29t-22.5 11.5t-36 7t-37.5 14t-26.5 32t-3.5 62.5q31 16 45.5 9.5
t19.5 -20t4 -26t0 -7.5q0 -11 19 -15.5t42 -11.5t43.5 -19t25.5 -37q8 -29 -1.5 -50t-30.5 -33t-49.5 -14.5t-58.5 4.5z" />
    <glyph glyph-name="Eacute" unicode="&#xc9;" horiz-adv-x="559" 
d="M184 11q-17 6 -33.5 19t-29.5 39.5t-21 69.5t-8 110q-53 52 -66 104t4 99t57 85.5t92 64t111 35t113 -1.5q16 -5 22 -15t4.5 -21t-9 -22t-17.5 -18q-33 1 -71 -4t-75 -16.5t-68.5 -30.5t-49.5 -45.5t-19.5 -60.5t21.5 -76l65 59q10 9 24.5 12t28.5 1t26.5 -9.5
t18.5 -19.5q10 -19 6 -37t-16 -33.5t-28.5 -29t-32.5 -24.5t-28 -19.5t-15 -13.5q-3 -19 -5.5 -37t-1.5 -33.5t7.5 -29.5t21.5 -25q25 -20 59.5 -9t68 36t61 55t39.5 48q19 31 31.5 45.5t22 18t19.5 -1.5t24 -13q4 -32 -12 -67t-45 -67t-67 -59.5t-78.5 -45t-80 -23
t-70.5 6.5zM225 680q20 28 32 52.5t22.5 38.5t22.5 13.5t31 -24.5q-2 -21 -14.5 -47.5t-29.5 -44t-34.5 -18.5t-29.5 30z" />
    <glyph glyph-name="Edieresis" unicode="&#xcb;" horiz-adv-x="559" 
d="M184 11q-17 6 -33.5 19t-29.5 39.5t-21 69.5t-8 110q-53 52 -66 104t4 99t57 85.5t92 64t111 35t113 -1.5q16 -5 22 -15t4.5 -21t-9 -22t-17.5 -18q-33 1 -71 -4t-75 -16.5t-68.5 -30.5t-49.5 -45.5t-19.5 -60.5t21.5 -76l65 59q10 9 24.5 12t28.5 1t26.5 -9.5
t18.5 -19.5q10 -19 6 -37t-16 -33.5t-28.5 -29t-32.5 -24.5t-28 -19.5t-15 -13.5q-3 -19 -5.5 -37t-1.5 -33.5t7.5 -29.5t21.5 -25q25 -20 59.5 -9t68 36t61 55t39.5 48q19 31 31.5 45.5t22 18t19.5 -1.5t24 -13q4 -32 -12 -67t-45 -67t-67 -59.5t-78.5 -45t-80 -23
t-70.5 6.5zM175 670q-22 18 -22 36.5t12 30.5t32 14.5t38 -11.5q21 -17 20 -35t-14 -30t-32 -15t-34 10zM327 673q-22 18 -22 36.5t12 30.5t31.5 14.5t37.5 -11.5q21 -17 20 -35t-13.5 -30t-31.5 -15t-34 10z" />
    <glyph glyph-name="Ecircumflex" unicode="&#xca;" horiz-adv-x="559" 
d="M184 11q-17 6 -33.5 19t-29.5 39.5t-21 69.5t-8 110q-53 52 -66 104t4 99t57 85.5t92 64t111 35t113 -1.5q16 -5 22 -15t4.5 -21t-9 -22t-17.5 -18q-33 1 -71 -4t-75 -16.5t-68.5 -30.5t-49.5 -45.5t-19.5 -60.5t21.5 -76l65 59q10 9 24.5 12t28.5 1t26.5 -9.5
t18.5 -19.5q10 -19 6 -37t-16 -33.5t-28.5 -29t-32.5 -24.5t-28 -19.5t-15 -13.5q-3 -19 -5.5 -37t-1.5 -33.5t7.5 -29.5t21.5 -25q25 -20 59.5 -9t68 36t61 55t39.5 48q19 31 31.5 45.5t22 18t19.5 -1.5t24 -13q4 -32 -12 -67t-45 -67t-67 -59.5t-78.5 -45t-80 -23
t-70.5 6.5zM391 704q6 -17 2 -29t-14 -18t-23 -4.5t-25 13.5q-9 9 -14 16t-9.5 15t-10.5 20t-16 31q-8 -23 -12 -32.5t-6 -14t-4 -8.5t-6 -16q-12 -24 -29 -30.5t-31.5 -1t-22.5 19.5t-2 30l37 91q11 20 27 31t34 12.5t36 -6.5t32 -27z" />
    <glyph glyph-name="Egrave" unicode="&#xc8;" horiz-adv-x="559" 
d="M184 11q-17 6 -33.5 19t-29.5 39.5t-21 69.5t-8 110q-53 52 -66 104t4 99t57 85.5t92 64t111 35t113 -1.5q16 -5 22 -15t4.5 -21t-9 -22t-17.5 -18q-33 1 -71 -4t-75 -16.5t-68.5 -30.5t-49.5 -45.5t-19.5 -60.5t21.5 -76l65 59q10 9 24.5 12t28.5 1t26.5 -9.5
t18.5 -19.5q10 -19 6 -37t-16 -33.5t-28.5 -29t-32.5 -24.5t-28 -19.5t-15 -13.5q-3 -19 -5.5 -37t-1.5 -33.5t7.5 -29.5t21.5 -25q25 -20 59.5 -9t68 36t61 55t39.5 48q19 31 31.5 45.5t22 18t19.5 -1.5t24 -13q4 -32 -12 -67t-45 -67t-67 -59.5t-78.5 -45t-80 -23
t-70.5 6.5zM294 689q-12 -31 -29.5 -30t-34.5 18.5t-30 44t-14 47.5q19 24 31 24.5t22.5 -13.5t22.5 -38.5t32 -52.5z" />
    <glyph glyph-name="Iacute" unicode="&#xcd;" horiz-adv-x="212" 
d="M103 11q-2 1 -6 7.5t-5 8.5q2 42 2 70t-1 55t-3.5 58.5t-7 82t-10.5 125.5t-14 189q7 12 19 20.5t25.5 11t26.5 -2t21 -18.5q1 -78 8.5 -151t15.5 -144.5t13.5 -143t2.5 -146.5q-5 -14 -15 -21.5t-22.5 -10t-25.5 0t-24 9.5zM49 693q20 28 32 52.5t22.5 38.5t22.5 13.5
t31 -24.5q-2 -21 -14.5 -47.5t-29.5 -44t-34.5 -18.5t-29.5 30z" />
    <glyph glyph-name="Icircumflex" unicode="&#xce;" horiz-adv-x="212" 
d="M103 11q-2 1 -6 7.5t-5 8.5q2 42 2 70t-1 55t-3.5 58.5t-7 82t-10.5 125.5t-14 189q7 12 19 20.5t25.5 11t26.5 -2t21 -18.5q1 -78 8.5 -151t15.5 -144.5t13.5 -143t2.5 -146.5q-5 -14 -15 -21.5t-22.5 -10t-25.5 0t-24 9.5zM218 704q6 -17 2 -29t-14 -18t-23 -4.5
t-25 13.5q-9 9 -14 16t-9.5 15t-10.5 20t-16 31q-8 -23 -12 -32.5t-6 -14t-4 -8.5t-6 -16q-12 -24 -29 -30.5t-31.5 -1t-22.5 19.5t-2 30l37 91q11 20 27 31t34 12.5t36 -6.5t32 -27z" />
    <glyph glyph-name="Idieresis" unicode="&#xcf;" horiz-adv-x="212" 
d="M103 11q-2 1 -6 7.5t-5 8.5q2 42 2 70t-1 55t-3.5 58.5t-7 82t-10.5 125.5t-14 189q7 12 19 20.5t25.5 11t26.5 -2t21 -18.5q1 -78 8.5 -151t15.5 -144.5t13.5 -143t2.5 -146.5q-5 -14 -15 -21.5t-22.5 -10t-25.5 0t-24 9.5zM3 670q-22 18 -22 36.5t12 30.5t32 14.5
t38 -11.5q21 -17 20 -35t-14 -30t-32 -15t-34 10zM155 673q-22 18 -22 36.5t12 30.5t31.5 14.5t37.5 -11.5q21 -17 20 -35t-13.5 -30t-31.5 -15t-34 10z" />
    <glyph glyph-name="Igrave" unicode="&#xcc;" horiz-adv-x="212" 
d="M103 11q-2 1 -6 7.5t-5 8.5q2 42 2 70t-1 55t-3.5 58.5t-7 82t-10.5 125.5t-14 189q7 12 19 20.5t25.5 11t26.5 -2t21 -18.5q1 -78 8.5 -151t15.5 -144.5t13.5 -143t2.5 -146.5q-5 -14 -15 -21.5t-22.5 -10t-25.5 0t-24 9.5zM169 696q-12 -31 -29.5 -30t-34.5 18.5
t-30 44t-14 47.5q19 24 31 24.5t22.5 -13.5t22.5 -38.5t32 -52.5z" />
    <glyph glyph-name="Ncommaaccent" unicode="&#x145;" horiz-adv-x="662" 
d="M339 -38q13 -18 18 -45.5t3.5 -56.5t-9.5 -55t-19.5 -42t-26 -17t-30.5 20q10 30 8.5 64t-3.5 66q-5 15 -4 33t8 30.5t20.5 15t34.5 -12.5zM114 22q-8 -11 -21 -17t-25.5 -6t-24 7t-16.5 21q1 36 3 65.5t3.5 58.5t2.5 61.5t2.5 74.5t2 95.5t1.5 126.5q0 17 -3.5 41.5
t-2 45.5t11.5 34t37 9q14 -2 24.5 -4t26 -14t40.5 -40t68 -83t109 -143t163 -219q19 26 25.5 72t5.5 101t-5.5 111.5t-8.5 103.5t-4.5 78t8.5 34q20 3 33.5 1.5t22.5 -8t14.5 -18.5t10.5 -29q10 -66 16.5 -132.5t4 -132.5t-15.5 -131t-43 -127q-21 -34 -48.5 -34t-58.5 23
t-65 63.5t-67.5 87.5t-65 96.5t-59 89.5t-48.5 65.5t-34 26.5q1 -48 3 -107t1 -120.5t-6 -120.5t-18 -107z" />
    <glyph glyph-name="Ntilde" unicode="&#xd1;" horiz-adv-x="662" 
d="M114 22q-8 -11 -21 -17t-25.5 -6t-24 7t-16.5 21q1 36 3 65.5t3.5 58.5t2.5 61.5t2.5 74.5t2 95.5t1.5 126.5q0 17 -3.5 41.5t-2 45.5t11.5 34t37 9q14 -2 24.5 -4t26 -14t40.5 -40t68 -83t109 -143t163 -219q19 26 25.5 72t5.5 101t-5.5 111.5t-8.5 103.5t-4.5 78
t8.5 34q20 3 33.5 1.5t22.5 -8t14.5 -18.5t10.5 -29q10 -66 16.5 -132.5t4 -132.5t-15.5 -131t-43 -127q-21 -34 -48.5 -34t-58.5 23t-65 63.5t-67.5 87.5t-65 96.5t-59 89.5t-48.5 65.5t-34 26.5q1 -48 3 -107t1 -120.5t-6 -120.5t-18 -107zM176 641q-20 25 -14 50.5
t25.5 45.5t47 31.5t50.5 9.5q16 -1 28 -8t22.5 -16t20.5 -19t22 -17q10 -6 19.5 -6t17 4.5t11.5 13.5t2 20q-3 10 -9 17.5t-10.5 13.5t-4.5 13t8 17q47 10 69.5 -4t25 -38.5t-11.5 -52.5t-38 -47t-56 -22t-65 23q-13 7 -23.5 19.5t-29.5 19.5q-20 6 -32 -2.5t-20 -22.5
t-14 -29t-14 -22q-12 -2 -16 -1.5t-11 9.5z" />
    <glyph glyph-name="Oacute" unicode="&#xd3;" horiz-adv-x="526" 
d="M245 12q-83 11 -133.5 55.5t-74 106t-22.5 132.5t21 135.5t57 114.5t85 70.5t104.5 3t116.5 -88.5q43 -41 70.5 -100t37 -122t-0.5 -124t-41.5 -106t-86 -67.5t-133.5 -9.5zM228 95q50 -18 85.5 -10t58 32t33.5 60.5t12.5 76.5t-5 79t-18.5 69q-31 68 -70 102.5t-77 33.5
t-72 -37.5t-54 -109.5q-11 -42 -12 -86t11 -84t38 -73t70 -53zM192 696q20 28 32 52.5t22.5 38.5t22.5 13.5t31 -24.5q-2 -21 -14.5 -47.5t-29.5 -44t-34.5 -18.5t-29.5 30z" />
    <glyph glyph-name="Ocircumflex" unicode="&#xd4;" horiz-adv-x="526" 
d="M245 12q-83 11 -133.5 55.5t-74 106t-22.5 132.5t21 135.5t57 114.5t85 70.5t104.5 3t116.5 -88.5q43 -41 70.5 -100t37 -122t-0.5 -124t-41.5 -106t-86 -67.5t-133.5 -9.5zM228 95q50 -18 85.5 -10t58 32t33.5 60.5t12.5 76.5t-5 79t-18.5 69q-31 68 -70 102.5t-77 33.5
t-72 -37.5t-54 -109.5q-11 -42 -12 -86t11 -84t38 -73t70 -53zM349 714q6 -17 2 -29t-14 -18t-23 -4.5t-25 13.5q-9 9 -14 16t-9.5 15t-10.5 20t-16 31q-8 -23 -12 -32.5t-6 -14t-4 -8.5t-6 -16q-12 -24 -29 -30.5t-31.5 -1t-22.5 19.5t-2 30l37 91q11 20 27 31t34 12.5
t36 -6.5t32 -27z" />
    <glyph glyph-name="Odieresis" unicode="&#xd6;" horiz-adv-x="526" 
d="M245 12q-83 11 -133.5 55.5t-74 106t-22.5 132.5t21 135.5t57 114.5t85 70.5t104.5 3t116.5 -88.5q43 -41 70.5 -100t37 -122t-0.5 -124t-41.5 -106t-86 -67.5t-133.5 -9.5zM228 95q50 -18 85.5 -10t58 32t33.5 60.5t12.5 76.5t-5 79t-18.5 69q-31 68 -70 102.5t-77 33.5
t-72 -37.5t-54 -109.5q-11 -42 -12 -86t11 -84t38 -73t70 -53zM119 670q-22 18 -22 36.5t12 30.5t32 14.5t38 -11.5q21 -17 20 -35t-14 -30t-32 -15t-34 10zM271 673q-22 18 -22 36.5t12 30.5t31.5 14.5t37.5 -11.5q21 -17 20 -35t-13.5 -30t-31.5 -15t-34 10z" />
    <glyph glyph-name="Ograve" unicode="&#xd2;" horiz-adv-x="526" 
d="M245 12q-83 11 -133.5 55.5t-74 106t-22.5 132.5t21 135.5t57 114.5t85 70.5t104.5 3t116.5 -88.5q43 -41 70.5 -100t37 -122t-0.5 -124t-41.5 -106t-86 -67.5t-133.5 -9.5zM228 95q50 -18 85.5 -10t58 32t33.5 60.5t12.5 76.5t-5 79t-18.5 69q-31 68 -70 102.5t-77 33.5
t-72 -37.5t-54 -109.5q-11 -42 -12 -86t11 -84t38 -73t70 -53zM317 680q-12 -31 -29.5 -30t-34.5 18.5t-30 44t-14 47.5q19 24 31 24.5t22.5 -13.5t22.5 -38.5t32 -52.5z" />
    <glyph glyph-name="Oslash" unicode="&#xd8;" horiz-adv-x="526" 
d="M245 12q-83 11 -133.5 55.5t-74 106t-22.5 132.5t21 135.5t57 114.5t85 70.5t104.5 3t116.5 -88.5q43 -41 70.5 -100t37 -122t-0.5 -124t-41.5 -106t-86 -67.5t-133.5 -9.5zM228 95q50 -18 85.5 -10t58 32t33.5 60.5t12.5 76.5t-5 79t-18.5 69q-31 68 -70 102.5t-77 33.5
t-72 -37.5t-54 -109.5q-11 -42 -12 -86t11 -84t38 -73t70 -53zM187 35q-13 -23 -28.5 -25t-26.5 7t-16 24t3 27l227 546q4 15 16.5 24t26 10.5t25 -7.5t13.5 -30z" />
    <glyph glyph-name="Otilde" unicode="&#xd5;" horiz-adv-x="526" 
d="M245 12q-83 11 -133.5 55.5t-74 106t-22.5 132.5t21 135.5t57 114.5t85 70.5t104.5 3t116.5 -88.5q43 -41 70.5 -100t37 -122t-0.5 -124t-41.5 -106t-86 -67.5t-133.5 -9.5zM228 95q50 -18 85.5 -10t58 32t33.5 60.5t12.5 76.5t-5 79t-18.5 69q-31 68 -70 102.5t-77 33.5
t-72 -37.5t-54 -109.5q-11 -42 -12 -86t11 -84t38 -73t70 -53zM75 648q-20 25 -14 50.5t25.5 45.5t47 31.5t50.5 9.5q16 -1 28 -8t22.5 -16t20.5 -19t22 -17q10 -6 19.5 -6t17 4.5t11.5 13.5t2 20q-3 10 -9 17.5t-10.5 13.5t-4.5 13t8 17q47 10 69.5 -4t25 -38.5
t-11.5 -52.5t-38 -47t-56 -22t-65 23q-13 7 -23.5 19.5t-29.5 19.5q-20 6 -32 -2.5t-20 -22.5t-14 -29t-14 -22q-12 -2 -16 -1.5t-11 9.5z" />
    <glyph glyph-name="OE" unicode="&#x152;" horiz-adv-x="954" 
d="M245 12q-83 11 -133.5 55.5t-74 106t-22.5 132.5t21 135.5t57 114.5t85 70.5t104.5 3t116.5 -88.5q43 -41 70.5 -100t37 -122t-0.5 -124t-41.5 -106t-86 -67.5t-133.5 -9.5zM228 95q50 -18 85.5 -10t58 32t33.5 60.5t12.5 76.5t-5 79t-18.5 69q-31 68 -70 102.5t-77 33.5
t-72 -37.5t-54 -109.5q-11 -42 -12 -86t11 -84t38 -73t70 -53zM561 15q-17 6 -33.5 19t-29.5 39.5t-21 69.5t-8 110q-53 52 -66 104t4 99t57 85.5t92 64t111 35t113 -1.5q16 -5 22 -15t4.5 -21t-9 -22t-17.5 -18q-33 1 -71 -4t-75 -16.5t-68.5 -30.5t-49.5 -45.5
t-19.5 -60.5t21.5 -76l65 59q10 9 24.5 12t28.5 1t26.5 -9.5t18.5 -19.5q10 -19 6 -37t-16 -33.5t-28.5 -29t-32.5 -24.5t-28 -19.5t-15 -13.5q-3 -19 -5.5 -37t-1.5 -33.5t7.5 -29.5t21.5 -25q25 -20 59.5 -9t68 36t61 55t39.5 48q19 31 31.5 45.5t22 18t19.5 -1.5t24 -13
q4 -32 -12 -67t-45 -67t-67 -59.5t-78.5 -45t-80 -23t-70.5 6.5z" />
    <glyph glyph-name="Scaron" unicode="&#x160;" horiz-adv-x="398" 
d="M253 688q-14 -19 -32 -27t-36 -6.5t-34 12.5t-27 31l-36 92q-6 16 2 30t22.5 19.5t31.5 -1t29 -30.5q4 -12 6 -16.5l4 -9l6 -13.5t12 -32q10 19 15.5 30.5t10 19.5t9.5 15t14 16q13 12 26 13.5t22.5 -4.5t13.5 -18t-2 -28zM224 9q-20 0 -55 10t-68 27t-56.5 39t-21.5 46
q2 22 16.5 26.5t37 -1t50 -18t54 -24t50 -19.5t39 -5.5t19.5 20t-9 56.5q-13 42 -41.5 76t-63 65t-69.5 61.5t-61 64.5q-29 59 -24 97t32 59t70 27.5t88.5 2.5t87.5 -15.5t69 -26.5q10 -13 15.5 -29t4.5 -29.5t-10.5 -21.5t-29.5 -5q-30 8 -62 20.5t-62 19t-56 1.5t-44 -32
q-5 -19 8.5 -41t36 -46.5t52 -50.5t57 -52t49.5 -51.5t32 -48.5q22 -48 22.5 -86t-17.5 -64t-53.5 -39.5t-86.5 -12.5z" />
    <glyph glyph-name="Uacute" unicode="&#xda;" horiz-adv-x="505" 
d="M468 258q-25 -98 -61 -153t-77 -75.5t-84.5 -9.5t-83.5 46t-73 90.5t-54 124.5t-26 147t11 159q-2 24 10 37t29.5 16t37 -4t31.5 -22v-5q-18 -44 -21 -98t6 -109t27 -106t41.5 -89.5t50.5 -59.5t54 -15.5t51.5 41.5t43.5 112q6 39 7 83t-1.5 87t-7.5 80.5t-12 61.5
q-3 22 11.5 31.5t34 9.5t38 -8t24.5 -23q2 -5 3.5 -26t1.5 -52t-0.5 -68.5t-2 -74.5t-4 -71t-5.5 -57zM198 680q20 28 32 52.5t22.5 38.5t22.5 13.5t31 -24.5q-2 -21 -14.5 -47.5t-29.5 -44t-34.5 -18.5t-29.5 30z" />
    <glyph glyph-name="Ucircumflex" unicode="&#xdb;" horiz-adv-x="505" 
d="M468 258q-25 -98 -61 -153t-77 -75.5t-84.5 -9.5t-83.5 46t-73 90.5t-54 124.5t-26 147t11 159q-2 24 10 37t29.5 16t37 -4t31.5 -22v-5q-18 -44 -21 -98t6 -109t27 -106t41.5 -89.5t50.5 -59.5t54 -15.5t51.5 41.5t43.5 112q6 39 7 83t-1.5 87t-7.5 80.5t-12 61.5
q-3 22 11.5 31.5t34 9.5t38 -8t24.5 -23q2 -5 3.5 -26t1.5 -52t-0.5 -68.5t-2 -74.5t-4 -71t-5.5 -57zM364 704q6 -17 2 -29t-14 -18t-23 -4.5t-25 13.5q-9 9 -14 16t-9.5 15t-10.5 20t-16 31q-8 -23 -12 -32.5t-6 -14t-4 -8.5t-6 -16q-12 -24 -29 -30.5t-31.5 -1
t-22.5 19.5t-2 30l37 91q11 20 27 31t34 12.5t36 -6.5t32 -27z" />
    <glyph glyph-name="Udieresis" unicode="&#xdc;" horiz-adv-x="505" 
d="M468 258q-25 -98 -61 -153t-77 -75.5t-84.5 -9.5t-83.5 46t-73 90.5t-54 124.5t-26 147t11 159q-2 24 10 37t29.5 16t37 -4t31.5 -22v-5q-18 -44 -21 -98t6 -109t27 -106t41.5 -89.5t50.5 -59.5t54 -15.5t51.5 41.5t43.5 112q6 39 7 83t-1.5 87t-7.5 80.5t-12 61.5
q-3 22 11.5 31.5t34 9.5t38 -8t24.5 -23q2 -5 3.5 -26t1.5 -52t-0.5 -68.5t-2 -74.5t-4 -71t-5.5 -57zM148 670q-22 18 -22 36.5t12 30.5t32 14.5t38 -11.5q21 -17 20 -35t-14 -30t-32 -15t-34 10zM300 673q-22 18 -22 36.5t12 30.5t31.5 14.5t37.5 -11.5q21 -17 20 -35
t-13.5 -30t-31.5 -15t-34 10z" />
    <glyph glyph-name="Ugrave" unicode="&#xd9;" horiz-adv-x="505" 
d="M468 258q-25 -98 -61 -153t-77 -75.5t-84.5 -9.5t-83.5 46t-73 90.5t-54 124.5t-26 147t11 159q-2 24 10 37t29.5 16t37 -4t31.5 -22v-5q-18 -44 -21 -98t6 -109t27 -106t41.5 -89.5t50.5 -59.5t54 -15.5t51.5 41.5t43.5 112q6 39 7 83t-1.5 87t-7.5 80.5t-12 61.5
q-3 22 11.5 31.5t34 9.5t38 -8t24.5 -23q2 -5 3.5 -26t1.5 -52t-0.5 -68.5t-2 -74.5t-4 -71t-5.5 -57zM306 680q-12 -31 -29.5 -30t-34.5 18.5t-30 44t-14 47.5q19 24 31 24.5t22.5 -13.5t22.5 -38.5t32 -52.5z" />
    <glyph glyph-name="Yacute" unicode="&#xdd;" horiz-adv-x="548" 
d="M359 16q-43 -17 -61 -6t-22.5 39.5t0 68.5t8.5 81t2 77.5t-20 57.5l-211 259q-16 19 -10.5 31.5t21 17t34.5 2t30 -12.5q33 -28 54.5 -55t40.5 -54t40.5 -54.5t54.5 -56.5q7 8 17.5 34t23.5 59t29 66t34.5 54t39 24t43.5 -25q0 -11 -9.5 -34.5t-23.5 -54t-30.5 -65.5
t-31.5 -69t-25.5 -65.5t-12.5 -54.5q-1 -4 -1.5 -23.5t-1.5 -46.5t-2 -58t-2.5 -58.5t-3.5 -49t-4 -28.5zM220 680q20 28 32 52.5t22.5 38.5t22.5 13.5t31 -24.5q-2 -21 -14.5 -47.5t-29.5 -44t-34.5 -18.5t-29.5 30z" />
    <glyph glyph-name="Ydieresis" unicode="&#x178;" horiz-adv-x="548" 
d="M359 16q-43 -17 -61 -6t-22.5 39.5t0 68.5t8.5 81t2 77.5t-20 57.5l-211 259q-16 19 -10.5 31.5t21 17t34.5 2t30 -12.5q33 -28 54.5 -55t40.5 -54t40.5 -54.5t54.5 -56.5q7 8 17.5 34t23.5 59t29 66t34.5 54t39 24t43.5 -25q0 -11 -9.5 -34.5t-23.5 -54t-30.5 -65.5
t-31.5 -69t-25.5 -65.5t-12.5 -54.5q-1 -4 -1.5 -23.5t-1.5 -46.5t-2 -58t-2.5 -58.5t-3.5 -49t-4 -28.5zM169 670q-22 18 -22 36.5t12 30.5t32 14.5t38 -11.5q21 -17 20 -35t-14 -30t-32 -15t-34 10zM321 673q-22 18 -22 36.5t12 30.5t31.5 14.5t37.5 -11.5q21 -17 20 -35
t-13.5 -30t-31.5 -15t-34 10z" />
    <glyph glyph-name="Zcaron" unicode="&#x17d;" horiz-adv-x="575" 
d="M341 688q-14 -19 -32 -27t-36 -6.5t-34 12.5t-27 31l-36 92q-6 16 2 30t22.5 19.5t31.5 -1t29 -30.5q4 -12 6 -16.5l4 -9l6 -13.5t12 -32q10 19 15.5 30.5t10 19.5t9.5 15t14 16q13 12 26 13.5t22.5 -4.5t13.5 -18t-2 -28zM558 20q-18 2 -50.5 -0.5t-73.5 -7.5t-86.5 -10
t-89 -7.5t-81 -1t-62.5 10.5t-33.5 26.5t5.5 46.5q39 63 64.5 102t42 63t26.5 37.5t19 24.5t18.5 24.5t25.5 37.5t40 63t61 102q-47 -4 -92.5 -16.5t-87 -25.5t-78 -22t-66.5 -5q-32 8 -39 20.5t7.5 27t47 30.5t79 32t105 30.5t123.5 26.5q31 7 56.5 -0.5t40 -24.5t14 -43
t-20.5 -56l-257 -403q0 -1 -4.5 -10.5t-6.5 -14.5v-5q43 -4 81 0.5t75.5 10.5t76 11.5t82.5 3.5q22 -7 33.5 -31t4.5 -47z" />
    <glyph glyph-name="aacute" unicode="&#xe1;" horiz-adv-x="405" 
d="M287 58q-12 -7 -37 -18.5t-55 -22t-61 -16.5t-55.5 -2.5t-37.5 20t-8 51.5q10 42 36.5 65t61.5 32t73.5 6.5t72.5 -11.5q10 35 11.5 74t-5.5 71t-22.5 53.5t-39 22t-55.5 -24.5t-72 -84q-13 -8 -27 -9.5t-25 4t-17 17.5t-2 32q68 98 124.5 135.5t100.5 31.5t75 -47
t47.5 -100t17.5 -127.5t-14 -129.5q25 -42 21.5 -63t-21.5 -22.5t-43.5 14.5t-43.5 48zM209 92q0 9 -15 11.5t-32 -0.5t-31.5 -11.5t-12.5 -22.5q3 -5 16 -4t29 5t29.5 10t16.5 12zM165 549q20 28 32 52.5t22.5 38.5t22.5 13.5t31 -24.5q-2 -21 -14.5 -47.5t-29.5 -44
t-34.5 -18.5t-29.5 30z" />
    <glyph glyph-name="acircumflex" unicode="&#xe2;" horiz-adv-x="405" 
d="M287 58q-12 -7 -37 -18.5t-55 -22t-61 -16.5t-55.5 -2.5t-37.5 20t-8 51.5q10 42 36.5 65t61.5 32t73.5 6.5t72.5 -11.5q10 35 11.5 74t-5.5 71t-22.5 53.5t-39 22t-55.5 -24.5t-72 -84q-13 -8 -27 -9.5t-25 4t-17 17.5t-2 32q68 98 124.5 135.5t100.5 31.5t75 -47
t47.5 -100t17.5 -127.5t-14 -129.5q25 -42 21.5 -63t-21.5 -22.5t-43.5 14.5t-43.5 48zM209 92q0 9 -15 11.5t-32 -0.5t-31.5 -11.5t-12.5 -22.5q3 -5 16 -4t29 5t29.5 10t16.5 12zM324 556q6 -17 2 -29t-14 -18t-23 -4.5t-25 13.5q-9 9 -14 16t-9.5 15t-10.5 20t-16 31
q-8 -23 -12 -32.5t-6 -14t-4 -8.5t-6 -16q-12 -24 -29 -30.5t-31.5 -1t-22.5 19.5t-2 30l37 91q11 20 27 31t34 12.5t36 -6.5t32 -27z" />
    <glyph glyph-name="adieresis" unicode="&#xe4;" horiz-adv-x="405" 
d="M287 58q-12 -7 -37 -18.5t-55 -22t-61 -16.5t-55.5 -2.5t-37.5 20t-8 51.5q10 42 36.5 65t61.5 32t73.5 6.5t72.5 -11.5q10 35 11.5 74t-5.5 71t-22.5 53.5t-39 22t-55.5 -24.5t-72 -84q-13 -8 -27 -9.5t-25 4t-17 17.5t-2 32q68 98 124.5 135.5t100.5 31.5t75 -47
t47.5 -100t17.5 -127.5t-14 -129.5q25 -42 21.5 -63t-21.5 -22.5t-43.5 14.5t-43.5 48zM209 92q0 9 -15 11.5t-32 -0.5t-31.5 -11.5t-12.5 -22.5q3 -5 16 -4t29 5t29.5 10t16.5 12zM105 525q-22 18 -22 36.5t12 30.5t32 14.5t38 -11.5q21 -17 20 -35t-14 -30t-32 -15t-34 10
zM257 528q-22 18 -22 36.5t12 30.5t31.5 14.5t37.5 -11.5q21 -17 20 -35t-13.5 -30t-31.5 -15t-34 10z" />
    <glyph glyph-name="agrave" unicode="&#xe0;" horiz-adv-x="405" 
d="M287 58q-12 -7 -37 -18.5t-55 -22t-61 -16.5t-55.5 -2.5t-37.5 20t-8 51.5q10 42 36.5 65t61.5 32t73.5 6.5t72.5 -11.5q10 35 11.5 74t-5.5 71t-22.5 53.5t-39 22t-55.5 -24.5t-72 -84q-13 -8 -27 -9.5t-25 4t-17 17.5t-2 32q68 98 124.5 135.5t100.5 31.5t75 -47
t47.5 -100t17.5 -127.5t-14 -129.5q25 -42 21.5 -63t-21.5 -22.5t-43.5 14.5t-43.5 48zM209 92q0 9 -15 11.5t-32 -0.5t-31.5 -11.5t-12.5 -22.5q3 -5 16 -4t29 5t29.5 10t16.5 12zM273 552q-12 -31 -29.5 -30t-34.5 18.5t-30 44t-14 47.5q19 24 31 24.5t22.5 -13.5
t22.5 -38.5t32 -52.5z" />
    <glyph glyph-name="aring" unicode="&#xe5;" horiz-adv-x="405" 
d="M164 496q-33 10 -49 30t-18 40.5t8 37.5t30 23q43 10 78.5 5t58.5 -20t30.5 -36.5t-4.5 -44.5q-5 -10 -20 -18t-34.5 -13t-41 -6t-38.5 2zM160 577q-5 -12 3.5 -24t32.5 -5q35 0 40 10t-6.5 19.5t-32.5 12t-37 -12.5zM287 58q-12 -7 -37 -18.5t-55 -22t-61 -16.5
t-55.5 -2.5t-37.5 20t-8 51.5q10 42 36.5 65t61.5 32t73.5 6.5t72.5 -11.5q10 35 11.5 74t-5.5 71t-22.5 53.5t-39 22t-55.5 -24.5t-72 -84q-13 -8 -27 -9.5t-25 4t-17 17.5t-2 32q68 98 124.5 135.5t100.5 31.5t75 -47t47.5 -100t17.5 -127.5t-14 -129.5q25 -42 21.5 -63
t-21.5 -22.5t-43.5 14.5t-43.5 48zM209 92q0 9 -15 11.5t-32 -0.5t-31.5 -11.5t-12.5 -22.5q3 -5 16 -4t29 5t29.5 10t16.5 12z" />
    <glyph glyph-name="atilde" unicode="&#xe3;" horiz-adv-x="405" 
d="M287 58q-12 -7 -37 -18.5t-55 -22t-61 -16.5t-55.5 -2.5t-37.5 20t-8 51.5q10 42 36.5 65t61.5 32t73.5 6.5t72.5 -11.5q10 35 11.5 74t-5.5 71t-22.5 53.5t-39 22t-55.5 -24.5t-72 -84q-13 -8 -27 -9.5t-25 4t-17 17.5t-2 32q68 98 124.5 135.5t100.5 31.5t75 -47
t47.5 -100t17.5 -127.5t-14 -129.5q25 -42 21.5 -63t-21.5 -22.5t-43.5 14.5t-43.5 48zM209 92q0 9 -15 11.5t-32 -0.5t-31.5 -11.5t-12.5 -22.5q3 -5 16 -4t29 5t29.5 10t16.5 12zM64 507q-20 25 -14 50.5t25.5 45.5t47 31.5t50.5 9.5q16 -1 28 -8t22.5 -16t20.5 -19
t22 -17q10 -6 19.5 -6t17 4.5t11.5 13.5t2 20q-3 10 -9 17.5t-10.5 13.5t-4.5 13t8 17q47 10 69.5 -4t25 -38.5t-11.5 -52.5t-38 -47t-56 -22t-65 23q-13 7 -23.5 19.5t-29.5 19.5q-20 6 -32 -2.5t-20 -22.5t-14 -29t-14 -22q-12 -2 -16 -1.5t-11 9.5z" />
    <glyph glyph-name="ae" unicode="&#xe6;" horiz-adv-x="717" 
d="M287 58q-12 -7 -37 -18.5t-55 -22t-61 -16.5t-55.5 -2.5t-37.5 20t-8 51.5q10 42 36.5 65t61.5 32t73.5 6.5t72.5 -11.5q10 35 11.5 74t-5.5 71t-22.5 53.5t-39 22t-55.5 -24.5t-72 -84q-13 -8 -27 -9.5t-25 4t-17 17.5t-2 32q68 98 124.5 135.5t100.5 31.5t75 -47
t47.5 -100t17.5 -127.5t-14 -129.5q25 -42 21.5 -63t-21.5 -22.5t-43.5 14.5t-43.5 48zM209 92q0 9 -15 11.5t-32 -0.5t-31.5 -11.5t-12.5 -22.5q3 -5 16 -4t29 5t29.5 10t16.5 12zM696 82q-34 -52 -77.5 -73t-87.5 -17.5t-84 29.5t-68.5 67t-41.5 94.5t-1 113.5
q17 64 42.5 105t54.5 61t60 21t59.5 -14.5t52 -46t38.5 -73.5q5 -23 -6.5 -36t-32 -19.5t-47.5 -9t-54 -3.5t-50.5 -3.5t-36.5 -9.5q-10 -30 -5 -62.5t20.5 -60t40.5 -47t55.5 -24t65.5 9t70 51.5q12 0 21.5 -4.5t14.5 -12t5 -17t-8 -19.5zM557 357q-9 18 -30 26t-44 6.5
t-42 -13t-23 -33.5q9 1 26.5 2.5t38.5 3t41 3.5t33 5z" />
    <glyph glyph-name="cacute" unicode="&#x107;" horiz-adv-x="456" 
d="M483 217q0 -22 -24 -52.5t-61 -61.5t-83.5 -57.5t-91.5 -40t-85.5 -9.5t-65.5 34q-19 24 -29.5 53.5t-14.5 60.5t-2.5 62.5t7.5 59.5q19 88 45.5 137t55 68t57 14.5t52.5 -22.5t41 -44.5t22 -51t-3.5 -42t-36.5 -16.5q-14 7 -26 26t-23.5 36.5t-22 26t-20.5 -6.5
q-46 -66 -62.5 -122.5t-10.5 -97t32 -62.5t67 -19t93.5 34t111.5 96q13 12 29 17.5t28.5 5t19 -7t1.5 -18.5zM167 551q20 28 32 52.5t22.5 38.5t22.5 13.5t31 -24.5q-2 -21 -14.5 -47.5t-29.5 -44t-34.5 -18.5t-29.5 30z" />
    <glyph glyph-name="ccaron" unicode="&#x10d;" horiz-adv-x="456" 
d="M282 527q-14 -19 -32 -27t-36 -6.5t-34 12.5t-27 31l-36 92q-6 16 2 30t22.5 19.5t31.5 -1t29 -30.5q4 -12 6 -16.5l4 -9l6 -13.5t12 -32q10 19 15.5 30.5t10 19.5t9.5 15t14 16q13 12 26 13.5t22.5 -4.5t13.5 -18t-2 -28zM483 217q0 -22 -24 -52.5t-61 -61.5
t-83.5 -57.5t-91.5 -40t-85.5 -9.5t-65.5 34q-19 24 -29.5 53.5t-14.5 60.5t-2.5 62.5t7.5 59.5q19 88 45.5 137t55 68t57 14.5t52.5 -22.5t41 -44.5t22 -51t-3.5 -42t-36.5 -16.5q-14 7 -26 26t-23.5 36.5t-22 26t-20.5 -6.5q-46 -66 -62.5 -122.5t-10.5 -97t32 -62.5
t67 -19t93.5 34t111.5 96q13 12 29 17.5t28.5 5t19 -7t1.5 -18.5z" />
    <glyph glyph-name="ccedilla" unicode="&#xe7;" horiz-adv-x="456" 
d="M483 217q0 -22 -24 -52.5t-61 -61.5t-83.5 -57.5t-91.5 -40t-85.5 -9.5t-65.5 34q-19 24 -29.5 53.5t-14.5 60.5t-2.5 62.5t7.5 59.5q19 88 45.5 137t55 68t57 14.5t52.5 -22.5t41 -44.5t22 -51t-3.5 -42t-36.5 -16.5q-14 7 -26 26t-23.5 36.5t-22 26t-20.5 -6.5
q-46 -66 -62.5 -122.5t-10.5 -97t32 -62.5t67 -19t93.5 34t111.5 96q13 12 29 17.5t28.5 5t19 -7t1.5 -18.5zM201 -205q-17 6 -34.5 20.5t-25.5 29.5t-1 26.5t39 10.5q7 -5 17 -13.5t21 -14.5t23.5 -6.5t24.5 11.5q10 21 3 29t-22.5 11.5t-36 7t-37.5 14t-26.5 32t-3.5 62.5
q31 16 45.5 9.5t19.5 -20t4 -26t0 -7.5q0 -11 19 -15.5t42 -11.5t43.5 -19t25.5 -37q8 -29 -1.5 -50t-30.5 -33t-49.5 -14.5t-58.5 4.5z" />
    <glyph glyph-name="eacute" unicode="&#xe9;" horiz-adv-x="384" 
d="M372 84q-34 -52 -77.5 -73t-87.5 -17.5t-84 29.5t-68.5 67t-41.5 94.5t-1 113.5q17 64 42.5 105t54.5 61t60 21t59.5 -14.5t52 -46t38.5 -73.5q5 -23 -6.5 -36t-32 -19.5t-47.5 -9t-54 -3.5t-50.5 -3.5t-36.5 -9.5q-10 -30 -5 -62.5t20.5 -60t40.5 -47t55.5 -24t65.5 9
t70 51.5q12 0 21.5 -4.5t14.5 -12t5 -17t-8 -19.5zM233 359q-9 18 -30 26t-44 6.5t-42 -13t-23 -33.5q9 1 26.5 2.5t38.5 3t41 3.5t33 5zM128 546q20 28 32 52.5t22.5 38.5t22.5 13.5t31 -24.5q-2 -21 -14.5 -47.5t-29.5 -44t-34.5 -18.5t-29.5 30z" />
    <glyph glyph-name="ecircumflex" unicode="&#xea;" horiz-adv-x="384" 
d="M372 84q-34 -52 -77.5 -73t-87.5 -17.5t-84 29.5t-68.5 67t-41.5 94.5t-1 113.5q17 64 42.5 105t54.5 61t60 21t59.5 -14.5t52 -46t38.5 -73.5q5 -23 -6.5 -36t-32 -19.5t-47.5 -9t-54 -3.5t-50.5 -3.5t-36.5 -9.5q-10 -30 -5 -62.5t20.5 -60t40.5 -47t55.5 -24t65.5 9
t70 51.5q12 0 21.5 -4.5t14.5 -12t5 -17t-8 -19.5zM233 359q-9 18 -30 26t-44 6.5t-42 -13t-23 -33.5q9 1 26.5 2.5t38.5 3t41 3.5t33 5zM277 566q6 -17 2 -29t-14 -18t-23 -4.5t-25 13.5q-9 9 -14 16t-9.5 15t-10.5 20t-16 31q-8 -23 -12 -32.5t-6 -14t-4 -8.5t-6 -16
q-12 -24 -29 -30.5t-31.5 -1t-22.5 19.5t-2 30l37 91q11 20 27 31t34 12.5t36 -6.5t32 -27z" />
    <glyph glyph-name="edieresis" unicode="&#xeb;" horiz-adv-x="384" 
d="M372 84q-34 -52 -77.5 -73t-87.5 -17.5t-84 29.5t-68.5 67t-41.5 94.5t-1 113.5q17 64 42.5 105t54.5 61t60 21t59.5 -14.5t52 -46t38.5 -73.5q5 -23 -6.5 -36t-32 -19.5t-47.5 -9t-54 -3.5t-50.5 -3.5t-36.5 -9.5q-10 -30 -5 -62.5t20.5 -60t40.5 -47t55.5 -24t65.5 9
t70 51.5q12 0 21.5 -4.5t14.5 -12t5 -17t-8 -19.5zM233 359q-9 18 -30 26t-44 6.5t-42 -13t-23 -33.5q9 1 26.5 2.5t38.5 3t41 3.5t33 5zM55 525q-22 18 -22 36.5t12 30.5t32 14.5t38 -11.5q21 -17 20 -35t-14 -30t-32 -15t-34 10zM207 528q-22 18 -22 36.5t12 30.5
t31.5 14.5t37.5 -11.5q21 -17 20 -35t-13.5 -30t-31.5 -15t-34 10z" />
    <glyph glyph-name="egrave" unicode="&#xe8;" horiz-adv-x="384" 
d="M372 84q-34 -52 -77.5 -73t-87.5 -17.5t-84 29.5t-68.5 67t-41.5 94.5t-1 113.5q17 64 42.5 105t54.5 61t60 21t59.5 -14.5t52 -46t38.5 -73.5q5 -23 -6.5 -36t-32 -19.5t-47.5 -9t-54 -3.5t-50.5 -3.5t-36.5 -9.5q-10 -30 -5 -62.5t20.5 -60t40.5 -47t55.5 -24t65.5 9
t70 51.5q12 0 21.5 -4.5t14.5 -12t5 -17t-8 -19.5zM233 359q-9 18 -30 26t-44 6.5t-42 -13t-23 -33.5q9 1 26.5 2.5t38.5 3t41 3.5t33 5zM230 535q-12 -31 -29.5 -30t-34.5 18.5t-30 44t-14 47.5q19 24 31 24.5t22.5 -13.5t22.5 -38.5t32 -52.5z" />
    <glyph glyph-name="iacute" unicode="&#xed;" horiz-adv-x="195" 
d="M184 33q-2 -6 -14 -12.5t-27 -10t-30 -2t-21 13.5q-14 30 -24 79t-17.5 102.5t-13 104t-9.5 82.5q1 3 4.5 13t12.5 19t25.5 12.5t44.5 -6.5l69 -395v0zM43 519q20 28 32 52.5t22.5 38.5t22.5 13.5t31 -24.5q-2 -21 -14.5 -47.5t-29.5 -44t-34.5 -18.5t-29.5 30z" />
    <glyph glyph-name="icircumflex" unicode="&#xee;" horiz-adv-x="195" 
d="M184 33q-2 -6 -14 -12.5t-27 -10t-30 -2t-21 13.5q-14 30 -24 79t-17.5 102.5t-13 104t-9.5 82.5q1 3 4.5 13t12.5 19t25.5 12.5t44.5 -6.5l69 -395v0zM211 543q6 -17 2 -29t-14 -18t-23 -4.5t-25 13.5q-9 9 -14 16t-9.5 15t-10.5 20t-16 31q-8 -23 -12 -32.5t-6 -14
t-4 -8.5t-6 -16q-12 -24 -29 -30.5t-31.5 -1t-22.5 19.5t-2 30l37 91q11 20 27 31t34 12.5t36 -6.5t32 -27z" />
    <glyph glyph-name="idieresis" unicode="&#xef;" horiz-adv-x="195" 
d="M184 33q-2 -6 -14 -12.5t-27 -10t-30 -2t-21 13.5q-14 30 -24 79t-17.5 102.5t-13 104t-9.5 82.5q1 3 4.5 13t12.5 19t25.5 12.5t44.5 -6.5l69 -395v0zM-6 509q-22 18 -22 36.5t12 30.5t32 14.5t38 -11.5q21 -17 20 -35t-14 -30t-32 -15t-34 10zM146 512q-22 18 -22 36.5
t12 30.5t31.5 14.5t37.5 -11.5q21 -17 20 -35t-13.5 -30t-31.5 -15t-34 10z" />
    <glyph glyph-name="igrave" unicode="&#xec;" horiz-adv-x="195" 
d="M184 33q-2 -6 -14 -12.5t-27 -10t-30 -2t-21 13.5q-14 30 -24 79t-17.5 102.5t-13 104t-9.5 82.5q1 3 4.5 13t12.5 19t25.5 12.5t44.5 -6.5l69 -395v0zM151 519q-12 -31 -29.5 -30t-34.5 18.5t-30 44t-14 47.5q19 24 31 24.5t22.5 -13.5t22.5 -38.5t32 -52.5z" />
    <glyph glyph-name="ntilde" unicode="&#xf1;" horiz-adv-x="509" 
d="M419 16q-3 18 -9 55t-13 79l-13.5 81t-10.5 61q-21 53 -42.5 74.5t-43 19t-41.5 -24t-37.5 -55t-32 -73.5t-24.5 -79t-14.5 -73t-2.5 -54q-9 -12 -21 -18.5t-24 -5.5t-22.5 9t-15.5 25q0 24 -1 56t-3.5 65t-6.5 63.5t-9 51.5q-4 15 -13.5 36t-13.5 41t2.5 35.5t35.5 19.5
q28 3 40 -12t16.5 -36.5t5 -43t5.5 -31.5q37 103 92.5 151.5t111.5 39.5t103 -78t67 -200l11 -88t0.5 -65.5t-21.5 -33.5t-55 8zM67 487q-20 25 -14 50.5t25.5 45.5t47 31.5t50.5 9.5q16 -1 28 -8t22.5 -16t20.5 -19t22 -17q10 -6 19.5 -6t17 4.5t11.5 13.5t2 20
q-3 10 -9 17.5t-10.5 13.5t-4.5 13t8 17q47 10 69.5 -4t25 -38.5t-11.5 -52.5t-38 -47t-56 -22t-65 23q-13 7 -23.5 19.5t-29.5 19.5q-20 6 -32 -2.5t-20 -22.5t-14 -29t-14 -22q-12 -2 -16 -1.5t-11 9.5z" />
    <glyph glyph-name="oacute" unicode="&#xf3;" horiz-adv-x="359" 
d="M118 5q-39 23 -63 62.5t-34.5 87t-9.5 97.5t11.5 94t28.5 76.5t41 45.5q45 17 82.5 9t67 -34t51 -65.5t34 -84.5t17 -92t-0.5 -88q-8 -33 -32.5 -58t-57.5 -39.5t-69 -17.5t-66 7zM109 301q-2 -13 -3 -37t0 -52.5t6 -56.5t16.5 -48t30.5 -29t48 2q32 12 46.5 38t16 58.5
t-8 68t-25 65t-35 50t-37.5 23t-33 -15.5t-22 -66zM115 549q20 28 32 52.5t22.5 38.5t22.5 13.5t31 -24.5q-2 -21 -14.5 -47.5t-29.5 -44t-34.5 -18.5t-29.5 30z" />
    <glyph glyph-name="ocircumflex" unicode="&#xf4;" horiz-adv-x="359" 
d="M118 5q-39 23 -63 62.5t-34.5 87t-9.5 97.5t11.5 94t28.5 76.5t41 45.5q45 17 82.5 9t67 -34t51 -65.5t34 -84.5t17 -92t-0.5 -88q-8 -33 -32.5 -58t-57.5 -39.5t-69 -17.5t-66 7zM109 301q-2 -13 -3 -37t0 -52.5t6 -56.5t16.5 -48t30.5 -29t48 2q32 12 46.5 38t16 58.5
t-8 68t-25 65t-35 50t-37.5 23t-33 -15.5t-22 -66zM264 555q6 -17 2 -29t-14 -18t-23 -4.5t-25 13.5q-9 9 -14 16t-9.5 15t-10.5 20t-16 31q-8 -23 -12 -32.5t-6 -14t-4 -8.5t-6 -16q-12 -24 -29 -30.5t-31.5 -1t-22.5 19.5t-2 30l37 91q11 20 27 31t34 12.5t36 -6.5t32 -27
z" />
    <glyph glyph-name="odieresis" unicode="&#xf6;" horiz-adv-x="359" 
d="M118 5q-39 23 -63 62.5t-34.5 87t-9.5 97.5t11.5 94t28.5 76.5t41 45.5q45 17 82.5 9t67 -34t51 -65.5t34 -84.5t17 -92t-0.5 -88q-8 -33 -32.5 -58t-57.5 -39.5t-69 -17.5t-66 7zM109 301q-2 -13 -3 -37t0 -52.5t6 -56.5t16.5 -48t30.5 -29t48 2q32 12 46.5 38t16 58.5
t-8 68t-25 65t-35 50t-37.5 23t-33 -15.5t-22 -66zM34 506q-22 18 -22 36.5t12 30.5t32 14.5t38 -11.5q21 -17 20 -35t-14 -30t-32 -15t-34 10zM186 509q-22 18 -22 36.5t12 30.5t31.5 14.5t37.5 -11.5q21 -17 20 -35t-13.5 -30t-31.5 -15t-34 10z" />
    <glyph glyph-name="ograve" unicode="&#xf2;" horiz-adv-x="359" 
d="M118 5q-39 23 -63 62.5t-34.5 87t-9.5 97.5t11.5 94t28.5 76.5t41 45.5q45 17 82.5 9t67 -34t51 -65.5t34 -84.5t17 -92t-0.5 -88q-8 -33 -32.5 -58t-57.5 -39.5t-69 -17.5t-66 7zM109 301q-2 -13 -3 -37t0 -52.5t6 -56.5t16.5 -48t30.5 -29t48 2q32 12 46.5 38t16 58.5
t-8 68t-25 65t-35 50t-37.5 23t-33 -15.5t-22 -66zM211 535q-12 -31 -29.5 -30t-34.5 18.5t-30 44t-14 47.5q19 24 31 24.5t22.5 -13.5t22.5 -38.5t32 -52.5z" />
    <glyph glyph-name="oslash" unicode="&#xf8;" horiz-adv-x="359" 
d="M121 8q-39 23 -63 62.5t-34.5 87t-9.5 97.5t11.5 94t28.5 76.5t41 45.5q45 17 82.5 9t67 -34t51 -65.5t34 -84.5t17 -92t-0.5 -88q-8 -33 -32.5 -58t-57.5 -39.5t-69 -17.5t-66 7zM112 304q-2 -13 -3 -37t0 -52.5t6 -56.5t16.5 -48t30.5 -29t48 2q32 12 46.5 38t16 58.5
t-8 68t-25 65t-35 50t-37.5 23t-33 -15.5t-22 -66zM92.0059 -37.8809q-13.8975 -19.793 -30.4678 -21.5137q-16.5693 -1.7207 -28.3291 6.02344q-11.7598 7.74512 -17.1045 20.6533q-5.34473 12.9072 3.20703 23.2344l242.67 469.852q4.27637 12.9082 17.6387 20.6533
q13.3633 7.74414 27.7949 9.03516q14.4326 1.29102 26.7266 -6.4541q12.293 -7.74512 14.4316 -25.8154z" />
    <glyph glyph-name="otilde" unicode="&#xf5;" horiz-adv-x="359" 
d="M118 5q-39 23 -63 62.5t-34.5 87t-9.5 97.5t11.5 94t28.5 76.5t41 45.5q45 17 82.5 9t67 -34t51 -65.5t34 -84.5t17 -92t-0.5 -88q-8 -33 -32.5 -58t-57.5 -39.5t-69 -17.5t-66 7zM109 301q-2 -13 -3 -37t0 -52.5t6 -56.5t16.5 -48t30.5 -29t48 2q32 12 46.5 38t16 58.5
t-8 68t-25 65t-35 50t-37.5 23t-33 -15.5t-22 -66zM-6 487q-20 25 -14 50.5t25.5 45.5t47 31.5t50.5 9.5q16 -1 28 -8t22.5 -16t20.5 -19t22 -17q10 -6 19.5 -6t17 4.5t11.5 13.5t2 20q-3 10 -9 17.5t-10.5 13.5t-4.5 13t8 17q47 10 69.5 -4t25 -38.5t-11.5 -52.5t-38 -47
t-56 -22t-65 23q-13 7 -23.5 19.5t-29.5 19.5q-20 6 -32 -2.5t-20 -22.5t-14 -29t-14 -22q-12 -2 -16 -1.5t-11 9.5z" />
    <glyph glyph-name="oe" unicode="&#x153;" horiz-adv-x="639" 
d="M118 5q-39 23 -63 62.5t-34.5 87t-9.5 97.5t11.5 94t28.5 76.5t41 45.5q45 17 82.5 9t67 -34t51 -65.5t34 -84.5t17 -92t-0.5 -88q-8 -33 -32.5 -58t-57.5 -39.5t-69 -17.5t-66 7zM109 301q-2 -13 -3 -37t0 -52.5t6 -56.5t16.5 -48t30.5 -29t48 2q32 12 46.5 38t16 58.5
t-8 68t-25 65t-35 50t-37.5 23t-33 -15.5t-22 -66zM621 93q-34 -52 -77.5 -73t-87.5 -17.5t-84 29.5t-68.5 67t-41.5 94.5t-1 113.5q17 64 42.5 105t54.5 61t60 21t59.5 -14.5t52 -46t38.5 -73.5q5 -23 -6.5 -36t-32 -19.5t-47.5 -9t-54 -3.5t-50.5 -3.5t-36.5 -9.5
q-10 -30 -5 -62.5t20.5 -60t40.5 -47t55.5 -24t65.5 9t70 51.5q12 0 21.5 -4.5t14.5 -12t5 -17t-8 -19.5zM482 368q-9 18 -30 26t-44 6.5t-42 -13t-23 -33.5q9 1 26.5 2.5t38.5 3t41 3.5t33 5z" />
    <glyph glyph-name="Eth" unicode="&#xd0;" horiz-adv-x="489" 
d="M101 13q-14 3 -29 15t-23.5 27t-6.5 30.5t22 26.5q1 37 -1.5 83.5t-6 96.5t-7 99t-4.5 90q-19 15 -24.5 34.5t-1.5 39.5t15 37.5t24.5 28.5t27.5 12.5t25 -11.5q32 3 66.5 2t68.5 -7t66.5 -18t60.5 -32q64 -58 87 -126.5t14.5 -137t-43.5 -129.5t-87 -103.5t-115 -60
t-128 2.5zM156 86q40 -1 76.5 14t66.5 43.5t52 70t33 95.5q4 67 -8 111t-38 71t-65.5 40t-89.5 17q-6 1 -16 1t-19 -2.5t-15.5 -8t-5.5 -15.5q4 -105 9.5 -218t19.5 -219zM11 315q-30 12 -37 30.5t2 34t30 25.5t48 6l192 -4q20 2 38 -5.5t27 -20.5t5 -29t-28 -31z" />
    <glyph glyph-name="rcaron" unicode="&#x159;" horiz-adv-x="353" 
d="M230 527q-14 -19 -32 -27t-36 -6.5t-34 12.5t-27 31l-36 92q-6 16 2 30t22.5 19.5t31.5 -1t29 -30.5q4 -12 6 -16.5l4 -9l6 -13.5t12 -32q10 19 15.5 30.5t10 19.5t9.5 15t14 16q13 12 26 13.5t22.5 -4.5t13.5 -18t-2 -28zM102 9q-9 -2 -19 -3.5t-18 1t-14 8.5t-8 19
q6 76 1 135t-14 105t-17.5 81.5t-9.5 64.5q27 16 43 12.5t25.5 -19.5t14 -39.5t9.5 -47.5q38 61 78 87.5t73 25.5t54.5 -24.5t22.5 -61.5q1 -7 -11.5 -3.5t-31.5 7.5t-42 3t-42 -17q-20 -17 -31.5 -44t-17.5 -57t-8 -60t-3 -53q-1 -18 2 -37.5t2 -36.5t-8.5 -29.5
t-29.5 -16.5z" />
    <glyph glyph-name="scaron" unicode="&#x161;" horiz-adv-x="363" 
d="M281 534q-14 -19 -32 -27t-36 -6.5t-34 12.5t-27 31l-36 92q-6 16 2 30t22.5 19.5t31.5 -1t29 -30.5q4 -12 6 -16.5l4 -9l6 -13.5t12 -32q10 19 15.5 30.5t10 19.5t9.5 15t14 16q13 12 26 13.5t22.5 -4.5t13.5 -18t-2 -28zM125 11q-14 4 -32.5 18t-35 32t-28.5 37
t-13 32.5t12.5 19t47.5 -2.5q9 -7 26.5 -24.5t38 -32t41 -20.5t35.5 11q5 35 -10.5 66t-38.5 60t-47.5 56.5t-38 56.5t-10 59.5t36.5 65.5q34 30 71.5 34t71 -7.5t58 -33t31 -42t-8.5 -34.5t-61 -10q-6 3 -16.5 16.5t-24.5 24.5t-30.5 14t-33.5 -15q-10 -16 -4 -37.5
t21 -45.5t36 -50t40.5 -51.5t35 -49.5t20.5 -44q5 -44 -11 -70.5t-44 -38t-64 -9.5t-71 15z" />
    <glyph glyph-name="uacute" unicode="&#xfa;" horiz-adv-x="423" 
d="M169 5q-32 11 -57 41.5t-43.5 68.5t-30 78.5t-16.5 72.5q-2 16 -4 41.5t1.5 48.5t16 38.5t40.5 12.5q17 -1 23 -18t8.5 -45t4.5 -62.5t11.5 -70t30 -69t59.5 -57.5q33 -4 52 10t27.5 40t8.5 61t-4.5 74t-12 78.5t-13.5 74.5q5 15 17.5 19t27 2t28 -8t20.5 -13
q7 -43 15 -82t12 -78t1 -78t-18 -82q-12 -33 -33 -56t-48 -35t-59 -14t-65 7zM157 519q20 28 32 52.5t22.5 38.5t22.5 13.5t31 -24.5q-2 -21 -14.5 -47.5t-29.5 -44t-34.5 -18.5t-29.5 30z" />
    <glyph glyph-name="ucircumflex" unicode="&#xfb;" horiz-adv-x="423" 
d="M169 5q-32 11 -57 41.5t-43.5 68.5t-30 78.5t-16.5 72.5q-2 16 -4 41.5t1.5 48.5t16 38.5t40.5 12.5q17 -1 23 -18t8.5 -45t4.5 -62.5t11.5 -70t30 -69t59.5 -57.5q33 -4 52 10t27.5 40t8.5 61t-4.5 74t-12 78.5t-13.5 74.5q5 15 17.5 19t27 2t28 -8t20.5 -13
q7 -43 15 -82t12 -78t1 -78t-18 -82q-12 -33 -33 -56t-48 -35t-59 -14t-65 7zM323 543q6 -17 2 -29t-14 -18t-23 -4.5t-25 13.5q-9 9 -14 16t-9.5 15t-10.5 20t-16 31q-8 -23 -12 -32.5t-6 -14t-4 -8.5t-6 -16q-12 -24 -29 -30.5t-31.5 -1t-22.5 19.5t-2 30l37 91
q11 20 27 31t34 12.5t36 -6.5t32 -27z" />
    <glyph glyph-name="udieresis" unicode="&#xfc;" horiz-adv-x="423" 
d="M169 5q-32 11 -57 41.5t-43.5 68.5t-30 78.5t-16.5 72.5q-2 16 -4 41.5t1.5 48.5t16 38.5t40.5 12.5q17 -1 23 -18t8.5 -45t4.5 -62.5t11.5 -70t30 -69t59.5 -57.5q33 -4 52 10t27.5 40t8.5 61t-4.5 74t-12 78.5t-13.5 74.5q5 15 17.5 19t27 2t28 -8t20.5 -13
q7 -43 15 -82t12 -78t1 -78t-18 -82q-12 -33 -33 -56t-48 -35t-59 -14t-65 7zM108 509q-22 18 -22 36.5t12 30.5t32 14.5t38 -11.5q21 -17 20 -35t-14 -30t-32 -15t-34 10zM260 512q-22 18 -22 36.5t12 30.5t31.5 14.5t37.5 -11.5q21 -17 20 -35t-13.5 -30t-31.5 -15t-34 10
z" />
    <glyph glyph-name="ugrave" unicode="&#xf9;" horiz-adv-x="423" 
d="M169 5q-32 11 -57 41.5t-43.5 68.5t-30 78.5t-16.5 72.5q-2 16 -4 41.5t1.5 48.5t16 38.5t40.5 12.5q17 -1 23 -18t8.5 -45t4.5 -62.5t11.5 -70t30 -69t59.5 -57.5q33 -4 52 10t27.5 40t8.5 61t-4.5 74t-12 78.5t-13.5 74.5q5 15 17.5 19t27 2t28 -8t20.5 -13
q7 -43 15 -82t12 -78t1 -78t-18 -82q-12 -33 -33 -56t-48 -35t-59 -14t-65 7zM265 519q-12 -31 -29.5 -30t-34.5 18.5t-30 44t-14 47.5q19 24 31 24.5t22.5 -13.5t22.5 -38.5t32 -52.5z" />
    <glyph glyph-name="yacute" unicode="&#xfd;" horiz-adv-x="453" 
d="M391 -341q-21 -17 -48.5 -19t-49 5.5t-31.5 23t4 33.5q9 5 23 6.5t28 8t25.5 23.5t16.5 53t0.5 95t-22.5 150q-56 -32 -102.5 -30.5t-82.5 26t-61.5 66t-41.5 90.5t-21.5 100.5t-0.5 94.5q6 14 19 21.5t27.5 7.5t27.5 -7t19 -22q3 -38 5.5 -74.5t9 -71t21 -67t41.5 -62.5
q15 -17 35 -17.5t38 8.5t30.5 25t14.5 32q3 29 0 58.5t-4.5 58.5t0.5 58t15 58q5 11 17 17.5t26.5 8.5t27.5 -1.5t21 -13.5q-16 -63 -12.5 -129t15.5 -132t25 -130.5t15.5 -126t-12 -118.5t-58.5 -107zM172 519q20 28 32 52.5t22.5 38.5t22.5 13.5t31 -24.5
q-2 -21 -14.5 -47.5t-29.5 -44t-34.5 -18.5t-29.5 30z" />
    <glyph glyph-name="ydieresis" unicode="&#xff;" horiz-adv-x="453" 
d="M391 -341q-21 -17 -48.5 -19t-49 5.5t-31.5 23t4 33.5q9 5 23 6.5t28 8t25.5 23.5t16.5 53t0.5 95t-22.5 150q-56 -32 -102.5 -30.5t-82.5 26t-61.5 66t-41.5 90.5t-21.5 100.5t-0.5 94.5q6 14 19 21.5t27.5 7.5t27.5 -7t19 -22q3 -38 5.5 -74.5t9 -71t21 -67t41.5 -62.5
q15 -17 35 -17.5t38 8.5t30.5 25t14.5 32q3 29 0 58.5t-4.5 58.5t0.5 58t15 58q5 11 17 17.5t26.5 8.5t27.5 -1.5t21 -13.5q-16 -63 -12.5 -129t15.5 -132t25 -130.5t15.5 -126t-12 -118.5t-58.5 -107zM122 509q-22 18 -22 36.5t12 30.5t32 14.5t38 -11.5q21 -17 20 -35
t-14 -30t-32 -15t-34 10zM274 512q-22 18 -22 36.5t12 30.5t31.5 14.5t37.5 -11.5q21 -17 20 -35t-13.5 -30t-31.5 -15t-34 10z" />
    <glyph glyph-name="zcaron" unicode="&#x17e;" horiz-adv-x="420" 
d="M264 527q-14 -19 -32 -27t-36 -6.5t-34 12.5t-27 31l-36 92q-6 16 2 30t22.5 19.5t31.5 -1t29 -30.5q4 -12 6 -16.5l4 -9l6 -13.5t12 -32q10 19 15.5 30.5t10 19.5t9.5 15t14 16q13 12 26 13.5t22.5 -4.5t13.5 -18t-2 -28zM92 0q-14 7 -24.5 21.5t-7.5 32.5q7 11 24 38
t36 57.5t36 57.5t23 38q4 6 16.5 24t26 37.5t24 35.5t10.5 17q-57 -5 -111 -11t-89.5 -3.5t-43.5 18t27 53.5q24 -2 58 1t71 7t72 6t61.5 -3t40 -20t6.5 -44q-18 -39 -40 -74.5t-45 -70t-45 -69.5t-39 -73q47 3 85 14.5t67 18t49.5 0.5t31.5 -39q-8 -13 -29.5 -24t-51 -19
t-64 -13.5t-67 -9t-61.5 -4.5t-47 0z" />
  </font>
</defs>
</svg>
